<?xml version="1.0" encoding="UTF-8" standalone="no"?><!DOCTYPE svg PUBLIC "-//W3C//DTD SVG 1.1//EN" "http://www.w3.org/Graphics/SVG/1.1/DTD/svg11.dtd"><svg width="100%" height="100%" viewBox="0 0 300 200" version="1.1" xmlns="http://www.w3.org/2000/svg" xmlns:xlink="http://www.w3.org/1999/xlink" xml:space="preserve" xmlns:serif="http://www.serif.com/" style="fill-rule:evenodd;clip-rule:evenodd;stroke-linejoin:round;stroke-miterlimit:1.41421;"><rect id="areaSquare" x="0" y="0" width="300" height="200" style="fill:#fff;"/><rect x="100" y="175.397" width="100" height="15" style="fill:#ffc119;"/><rect x="100" y="192.397" width="100" height="3"/><rect x="110" y="67" width="80" height="80"/><g><path d="M64.128,37.675l-11.619,0l-3.023,6.592l-4.412,0l13.429,-28.845l12.955,28.845l-4.482,0l-2.848,-6.592Zm-1.67,-3.849l-4.025,-9.229l-4.219,9.229l8.244,0Z" style="fill-rule:nonzero;"/><path d="M75.535,27.146l3.955,0l0,1.529c0.727,-0.761 1.371,-1.283 1.934,-1.564c0.574,-0.293 1.254,-0.439 2.039,-0.439c1.043,0 2.133,0.339 3.269,1.019l-1.81,3.621c-0.75,-0.539 -1.483,-0.808 -2.197,-0.808c-2.157,0 -3.235,1.628 -3.235,4.886l0,8.877l-3.955,0l0,-17.121Z" style="fill-rule:nonzero;"/><path d="M105.786,36.638l-12.27,0c0.106,1.407 0.563,2.526 1.371,3.358c0.809,0.82 1.846,1.23 3.112,1.23c0.984,0 1.798,-0.234 2.443,-0.703c0.633,-0.469 1.354,-1.336 2.162,-2.601l3.34,1.863c-0.516,0.879 -1.061,1.632 -1.635,2.259c-0.574,0.627 -1.189,1.142 -1.846,1.546c-0.656,0.405 -1.365,0.701 -2.126,0.888c-0.762,0.188 -1.588,0.281 -2.479,0.281c-2.555,0 -4.605,-0.82 -6.152,-2.46c-1.547,-1.653 -2.321,-3.844 -2.321,-6.575c0,-2.707 0.75,-4.898 2.25,-6.574c1.512,-1.652 3.516,-2.478 6.012,-2.478c2.52,0 4.512,0.802 5.977,2.408c1.453,1.594 2.179,3.802 2.179,6.627l-0.017,0.931Zm-4.061,-3.234c-0.551,-2.109 -1.881,-3.164 -3.99,-3.164c-0.481,0 -0.932,0.073 -1.354,0.22c-0.421,0.146 -0.805,0.357 -1.151,0.632c-0.346,0.276 -0.642,0.607 -0.888,0.994c-0.246,0.386 -0.433,0.826 -0.562,1.318l7.945,0Z" style="fill-rule:nonzero;"/><path d="M124.171,27.146l3.973,0l0,17.121l-3.973,0l0,-1.793c-1.629,1.524 -3.381,2.285 -5.256,2.285c-2.367,0 -4.324,-0.855 -5.871,-2.566c-1.535,-1.746 -2.303,-3.926 -2.303,-6.539c0,-2.566 0.768,-4.705 2.303,-6.416c1.535,-1.711 3.457,-2.566 5.766,-2.566c1.992,0 3.779,0.82 5.361,2.46l0,-1.986Zm-9.387,8.508c0,1.641 0.44,2.977 1.319,4.008c0.902,1.043 2.039,1.564 3.41,1.564c1.465,0 2.648,-0.504 3.551,-1.511c0.902,-1.043 1.353,-2.368 1.353,-3.973c0,-1.606 -0.451,-2.93 -1.353,-3.973c-0.903,-1.019 -2.075,-1.529 -3.516,-1.529c-1.359,0 -2.496,0.516 -3.41,1.547c-0.902,1.043 -1.354,2.332 -1.354,3.867Z" style="fill-rule:nonzero;"/><path d="M150.677,21.17l-3.322,1.968c-0.621,-1.078 -1.213,-1.781 -1.775,-2.109c-0.586,-0.375 -1.342,-0.563 -2.268,-0.563c-1.136,0 -2.08,0.323 -2.83,0.967c-0.75,0.633 -1.125,1.43 -1.125,2.391c0,1.324 0.985,2.391 2.953,3.199l2.707,1.108c2.203,0.89 3.815,1.977 4.834,3.26c1.02,1.283 1.53,2.857 1.53,4.72c0,2.496 -0.832,4.559 -2.497,6.188c-1.675,1.64 -3.755,2.46 -6.24,2.46c-2.355,0 -4.301,-0.697 -5.836,-2.091c-1.511,-1.395 -2.455,-3.358 -2.83,-5.889l4.149,-0.914c0.187,1.594 0.515,2.695 0.984,3.305c0.844,1.171 2.074,1.757 3.691,1.757c1.278,0 2.338,-0.427 3.182,-1.283c0.844,-0.855 1.266,-1.939 1.266,-3.252c0,-0.527 -0.074,-1.01 -0.22,-1.45c-0.146,-0.439 -0.375,-0.844 -0.686,-1.213c-0.31,-0.369 -0.711,-0.715 -1.204,-1.037c-0.492,-0.322 -1.078,-0.63 -1.757,-0.923l-2.62,-1.09c-3.714,-1.57 -5.572,-3.867 -5.572,-6.89c0,-2.039 0.779,-3.744 2.338,-5.115c1.559,-1.383 3.498,-2.075 5.818,-2.075c3.129,0 5.573,1.524 7.33,4.571Z" style="fill-rule:nonzero;"/><path d="M169.625,53.584l0,-11.233c-1.57,1.606 -3.363,2.408 -5.379,2.408c-2.308,0 -4.224,-0.849 -5.748,-2.548c-1.535,-1.711 -2.302,-3.85 -2.302,-6.416c0,-2.602 0.767,-4.776 2.302,-6.522c1.547,-1.734 3.487,-2.601 5.819,-2.601c1.98,0 3.75,0.779 5.308,2.337l0,-1.863l3.973,0l0,26.438l-3.973,0Zm-9.386,-17.965c0,1.652 0.445,2.994 1.335,4.025c0.891,1.055 2.022,1.582 3.393,1.582c1.453,0 2.631,-0.504 3.533,-1.511c0.914,-1.02 1.371,-2.344 1.371,-3.973c0,-1.606 -0.451,-2.93 -1.353,-3.973c-0.902,-1.019 -2.074,-1.529 -3.516,-1.529c-1.359,0 -2.496,0.516 -3.41,1.547c-0.902,1.043 -1.353,2.32 -1.353,3.832Z" style="fill-rule:nonzero;"/><path d="M184.389,27.146l0,9.826c0,2.836 1.12,4.254 3.358,4.254c2.238,0 3.357,-1.418 3.357,-4.254l0,-9.826l3.955,0l0,9.914c0,1.371 -0.17,2.555 -0.509,3.551c-0.328,0.891 -0.897,1.693 -1.705,2.408c-1.336,1.16 -3.036,1.74 -5.098,1.74c-2.051,0 -3.744,-0.58 -5.08,-1.74c-0.82,-0.715 -1.401,-1.517 -1.74,-2.408c-0.329,-0.797 -0.493,-1.98 -0.493,-3.551l0,-9.914l3.955,0Z" style="fill-rule:nonzero;"/><path d="M214.113,27.146l3.972,0l0,17.121l-3.972,0l0,-1.793c-1.629,1.524 -3.381,2.285 -5.256,2.285c-2.367,0 -4.324,-0.855 -5.871,-2.566c-1.535,-1.746 -2.303,-3.926 -2.303,-6.539c0,-2.566 0.768,-4.705 2.303,-6.416c1.535,-1.711 3.457,-2.566 5.765,-2.566c1.993,0 3.78,0.82 5.362,2.46l0,-1.986Zm-9.387,8.508c0,1.641 0.439,2.977 1.318,4.008c0.903,1.043 2.039,1.564 3.41,1.564c1.465,0 2.649,-0.504 3.551,-1.511c0.903,-1.043 1.354,-2.368 1.354,-3.973c0,-1.606 -0.451,-2.93 -1.354,-3.973c-0.902,-1.019 -2.074,-1.529 -3.515,-1.529c-1.36,0 -2.496,0.516 -3.411,1.547c-0.902,1.043 -1.353,2.332 -1.353,3.867Z" style="fill-rule:nonzero;"/><path d="M224.518,27.146l3.955,0l0,1.529c0.726,-0.761 1.371,-1.283 1.933,-1.564c0.574,-0.293 1.254,-0.439 2.039,-0.439c1.043,0 2.133,0.339 3.27,1.019l-1.811,3.621c-0.75,-0.539 -1.482,-0.808 -2.197,-0.808c-2.156,0 -3.234,1.628 -3.234,4.886l0,8.877l-3.955,0l0,-17.121Z" style="fill-rule:nonzero;"/><path d="M254.768,36.638l-12.269,0c0.105,1.407 0.562,2.526 1.371,3.358c0.808,0.82 1.845,1.23 3.111,1.23c0.984,0 1.799,-0.234 2.443,-0.703c0.633,-0.469 1.354,-1.336 2.162,-2.601l3.34,1.863c-0.515,0.879 -1.06,1.632 -1.634,2.259c-0.575,0.627 -1.19,1.142 -1.846,1.546c-0.656,0.405 -1.365,0.701 -2.127,0.888c-0.762,0.188 -1.588,0.281 -2.479,0.281c-2.554,0 -4.605,-0.82 -6.152,-2.46c-1.547,-1.653 -2.32,-3.844 -2.32,-6.575c0,-2.707 0.75,-4.898 2.25,-6.574c1.511,-1.652 3.515,-2.478 6.011,-2.478c2.52,0 4.512,0.802 5.977,2.408c1.453,1.594 2.18,3.802 2.18,6.627l-0.018,0.931Zm-4.06,-3.234c-0.551,-2.109 -1.881,-3.164 -3.991,-3.164c-0.48,0 -0.931,0.073 -1.353,0.22c-0.422,0.146 -0.806,0.357 -1.152,0.632c-0.345,0.276 -0.641,0.607 -0.887,0.994c-0.246,0.386 -0.434,0.826 -0.563,1.318l7.946,0Z" style="fill-rule:nonzero;"/></g></svg>