<?xml version="1.0" encoding="UTF-8" standalone="no"?><!DOCTYPE svg PUBLIC "-//W3C//DTD SVG 1.1//EN" "http://www.w3.org/Graphics/SVG/1.1/DTD/svg11.dtd"><svg width="100%" height="100%" viewBox="0 0 300 200" version="1.1" xmlns="http://www.w3.org/2000/svg" xmlns:xlink="http://www.w3.org/1999/xlink" xml:space="preserve" xmlns:serif="http://www.serif.com/" style="fill-rule:evenodd;clip-rule:evenodd;stroke-linejoin:round;stroke-miterlimit:1.41421;"><rect id="brainTrain" x="0" y="0" width="300" height="200" style="fill:#51b2e4;"/><path d="M75,0l-75,0l72.794,200l75,0l-72.794,-200Z" style="fill:#fff;"/><path d="M227.206,0l-75,0l72.794,200l75,0l-72.794,-200Z" style="fill:#fff;"/><g><path d="M39,36.965l8.5,0l0,3l-8.5,0l0,8.5l-3,0l0,-8.5l-8.5,0l0,-3l8.5,0l0,-8.5l3,0l0,8.5Z" style="fill-opacity:0.701961;"/><path d="M37.5,87.644l10.419,7.57l-3.98,12.248l-12.878,0l-3.98,-12.248l10.419,-7.57Z" style="fill-opacity:0.701961;"/><g><path d="M31.442,162.474c-0.281,2.405 -1.169,4.26 -2.663,5.566c-1.493,1.307 -3.479,1.96 -5.956,1.96c-2.686,0 -4.838,-0.963 -6.457,-2.889c-1.619,-1.925 -2.428,-4.502 -2.428,-7.729l0,-2.186c0,-2.113 0.377,-3.971 1.132,-5.574c0.755,-1.603 1.824,-2.834 3.209,-3.693c1.384,-0.859 2.987,-1.288 4.809,-1.288c2.415,0 4.351,0.674 5.809,2.022c1.457,1.348 2.305,3.214 2.545,5.598l-3.014,0c-0.26,-1.811 -0.825,-3.123 -1.694,-3.935c-0.869,-0.812 -2.085,-1.218 -3.646,-1.218c-1.915,0 -3.417,0.708 -4.505,2.124c-1.087,1.415 -1.631,3.43 -1.631,6.042l0,2.202c0,2.467 0.515,4.429 1.545,5.887c1.031,1.457 2.473,2.186 4.326,2.186c1.665,0 2.943,-0.378 3.833,-1.132c0.89,-0.755 1.481,-2.069 1.772,-3.943l3.014,0Z" style="fill-opacity:0.701961;fill-rule:nonzero;"/><rect x="35.751" y="146.953" width="2.998" height="22.734" style="fill-opacity:0.701961;fill-rule:nonzero;"/><path d="M51.912,155.666l5.449,-8.713l3.529,0l-7.182,11.274l7.354,11.461l-3.56,0l-5.59,-8.869l-5.621,8.869l-3.545,0l7.37,-11.461l-7.198,-11.274l3.513,0l5.481,8.713Z" style="fill-opacity:0.701961;fill-rule:nonzero;"/></g></g><g><rect x="102.5" y="36.965" width="20" height="3" style="fill-opacity:0.701961;"/><path d="M112.5,87.553l10,10l-10,10l-10,-10l10,-10Z" style="fill-opacity:0.701961;"/><g><path d="M100.555,155.978l5.449,-8.712l3.529,0l-7.182,11.273l7.354,11.461l-3.56,0l-5.59,-8.869l-5.621,8.869l-3.544,0l7.369,-11.461l-7.198,-11.273l3.513,0l5.481,8.712Z" style="fill-opacity:0.701961;fill-rule:nonzero;"/><path d="M116.201,167.549l10.773,0l0,2.451l-13.787,0l0,-22.734l3.014,0l0,20.283Z" style="fill-opacity:0.701961;fill-rule:nonzero;"/><rect x="130.613" y="147.266" width="2.998" height="22.734" style="fill-opacity:0.701961;fill-rule:nonzero;"/></g></g><g><path d="M262.5,44.465c1.104,0 2,0.896 2,2c0,1.104 -0.896,2 -2,2c-1.104,0 -2,-0.896 -2,-2c0,-1.104 0.896,-2 2,-2Zm10,-4.5l-20,0l0,-3l20,0l0,3Zm-10,-11.5c1.104,0 2,0.896 2,2c0,1.104 -0.896,2 -2,2c-1.104,0 -2,-0.896 -2,-2c0,-1.104 0.896,-2 2,-2Z" style="fill-opacity:0.701961;"/><path d="M266.414,86.406l5.388,3.914l-3.914,5.388l6.333,2.058l-2.058,6.333l-6.333,-2.058l0,6.66l-6.66,0l0,-6.66l-6.333,2.058l-2.058,-6.333l6.333,-2.058l-3.914,-5.388l5.388,-3.914l3.914,5.387l3.914,-5.387Z" style="fill-opacity:0.701961;"/><g><rect x="252.304" y="147.266" width="2.998" height="22.734" style="fill-opacity:0.701961;fill-rule:nonzero;"/><rect x="261.001" y="147.266" width="2.998" height="22.734" style="fill-opacity:0.701961;fill-rule:nonzero;"/><rect x="269.698" y="147.266" width="2.998" height="22.734" style="fill-opacity:0.701961;fill-rule:nonzero;"/></g></g><g><path d="M187.5,36.344l6.01,-6.01c0.708,0.707 1.415,1.414 2.122,2.121l-6.011,6.01l6.011,6.011l-2.122,2.121l-6.01,-6.01l-6.01,6.01l-2.122,-2.121l6.011,-6.011l-6.011,-6.01l2.122,-2.121l6.01,6.01Z" style="fill-opacity:0.701961;"/><path d="M201.396,107.462l-27.792,0l6.948,-19.818l13.896,0l6.948,19.818Z" style="fill-opacity:0.701961;"/><g><path d="M179.81,155.978l5.449,-8.712l3.529,0l-7.182,11.273l7.354,11.461l-3.56,0l-5.59,-8.869l-5.621,8.869l-3.545,0l7.37,-11.461l-7.198,-11.273l3.513,0l5.481,8.712Z" style="fill-opacity:0.701961;fill-rule:nonzero;"/><rect x="192.661" y="147.266" width="2.998" height="22.734" style="fill-opacity:0.701961;fill-rule:nonzero;"/><rect x="201.358" y="147.266" width="2.998" height="22.734" style="fill-opacity:0.701961;fill-rule:nonzero;"/></g></g></svg>