<?xml version="1.0" encoding="UTF-8" standalone="no"?><!DOCTYPE svg PUBLIC "-//W3C//DTD SVG 1.1//EN" "http://www.w3.org/Graphics/SVG/1.1/DTD/svg11.dtd"><svg width="100%" height="100%" viewBox="0 0 300 200" version="1.1" xmlns="http://www.w3.org/2000/svg" xmlns:xlink="http://www.w3.org/1999/xlink" xml:space="preserve" xmlns:serif="http://www.serif.com/" style="fill-rule:evenodd;clip-rule:evenodd;stroke-linejoin:round;stroke-miterlimit:1.41421;"><rect id="gameOfLife" x="0" y="0" width="300" height="200" style="fill:#fff;"/><clipPath id="_clip1"><rect x="0" y="0" width="300" height="200"/></clipPath><g clip-path="url(#_clip1)"><g><path d="M72.474,102.43l0,-2.484l7.524,0l0,12.888c-1.008,0.192 -2.16,0.354 -3.456,0.486c-1.296,0.132 -2.448,0.198 -3.456,0.198c-2.64,0 -4.584,-0.312 -5.832,-0.936c-1.248,-0.624 -2.106,-1.812 -2.574,-3.564c-0.468,-1.752 -0.702,-4.476 -0.702,-8.172c0,-3.648 0.24,-6.348 0.72,-8.1c0.48,-1.752 1.35,-2.952 2.61,-3.6c1.26,-0.648 3.21,-0.972 5.85,-0.972c1.128,0 2.334,0.072 3.618,0.216c1.284,0.144 2.334,0.312 3.15,0.504l0,2.376c-0.864,-0.144 -1.83,-0.27 -2.898,-0.378c-1.068,-0.108 -1.926,-0.162 -2.574,-0.162c-2.424,0 -4.11,0.168 -5.058,0.504c-0.948,0.336 -1.608,1.182 -1.98,2.538c-0.372,1.356 -0.558,3.714 -0.558,7.074c0,3.12 0.138,5.358 0.414,6.714c0.276,1.356 0.834,2.274 1.674,2.754c0.84,0.48 2.232,0.72 4.176,0.72c0.6,0 1.29,-0.03 2.07,-0.09c0.78,-0.06 1.446,-0.138 1.998,-0.234l0,-8.28l-4.716,0Z" style="fill:#464646;fill-rule:nonzero;"/><path d="M89.718,113.518c-1.92,0 -3.3,-0.39 -4.14,-1.17c-0.84,-0.78 -1.26,-2.178 -1.26,-4.194c0,-1.392 0.15,-2.478 0.45,-3.258c0.3,-0.78 0.816,-1.344 1.548,-1.692c0.732,-0.348 1.758,-0.522 3.078,-0.522c0.672,0 2.628,0.06 5.868,0.18l0,-1.224c0,-1.488 -0.12,-2.55 -0.36,-3.186c-0.24,-0.636 -0.678,-1.044 -1.314,-1.224c-0.636,-0.18 -1.71,-0.27 -3.222,-0.27c-0.672,0 -1.518,0.036 -2.538,0.108c-1.02,0.072 -1.842,0.156 -2.466,0.252l0,-2.232c1.68,-0.336 3.636,-0.504 5.868,-0.504c1.92,0 3.354,0.21 4.302,0.63c0.948,0.42 1.596,1.122 1.944,2.106c0.348,0.984 0.522,2.424 0.522,4.32l0,11.592l-2.448,0l-0.144,-2.556l-0.18,0c-0.432,1.152 -1.134,1.914 -2.106,2.286c-0.972,0.372 -2.106,0.558 -3.402,0.558Zm0.972,-2.376c1.008,0 1.83,-0.102 2.466,-0.306c0.636,-0.204 1.11,-0.618 1.422,-1.242c0.456,-0.936 0.684,-2.196 0.684,-3.78l0,-1.044l-5.148,0c-0.888,0 -1.542,0.078 -1.962,0.234c-0.42,0.156 -0.714,0.456 -0.882,0.9c-0.168,0.444 -0.252,1.134 -0.252,2.07c0,0.912 0.096,1.584 0.288,2.016c0.192,0.432 0.54,0.732 1.044,0.9c0.504,0.168 1.284,0.252 2.34,0.252Z" style="fill:#464646;fill-rule:nonzero;"/><path d="M123.594,102.646c0,-1.752 -0.078,-2.994 -0.234,-3.726c-0.156,-0.732 -0.462,-1.218 -0.918,-1.458c-0.456,-0.24 -1.224,-0.36 -2.304,-0.36c-1.224,0 -2.112,0.234 -2.664,0.702c-0.552,0.468 -0.9,1.134 -1.044,1.998c-0.144,0.864 -0.216,2.16 -0.216,3.888l0,9.54l-2.736,0l0,-10.584c0,-1.752 -0.078,-2.994 -0.234,-3.726c-0.156,-0.732 -0.462,-1.218 -0.918,-1.458c-0.456,-0.24 -1.224,-0.36 -2.304,-0.36c-1.2,0 -2.082,0.246 -2.646,0.738c-0.564,0.492 -0.918,1.176 -1.062,2.052c-0.144,0.876 -0.216,2.142 -0.216,3.798l0,9.54l-2.736,0l0,-18.36l2.448,0l0.144,2.592l0.18,0c0.336,-0.912 0.888,-1.62 1.656,-2.124c0.768,-0.504 1.884,-0.756 3.348,-0.756c1.464,0 2.556,0.222 3.276,0.666c0.72,0.444 1.212,1.182 1.476,2.214l0.216,0c0.336,-0.912 0.906,-1.62 1.71,-2.124c0.804,-0.504 1.938,-0.756 3.402,-0.756c1.44,0 2.52,0.24 3.24,0.72c0.72,0.48 1.212,1.212 1.476,2.196c0.264,0.984 0.396,2.352 0.396,4.104l0,11.628l-2.736,0l0,-10.584Z" style="fill:#464646;fill-rule:nonzero;"/><path d="M144.834,104.986l-11.016,0c0,1.872 0.102,3.216 0.306,4.032c0.204,0.816 0.66,1.38 1.368,1.692c0.708,0.312 1.878,0.468 3.51,0.468c1.536,0 3.276,-0.132 5.22,-0.396l0,2.232c-0.648,0.144 -1.518,0.264 -2.61,0.36c-1.092,0.096 -2.154,0.144 -3.186,0.144c-2.208,0 -3.828,-0.282 -4.86,-0.846c-1.032,-0.564 -1.71,-1.482 -2.034,-2.754c-0.324,-1.272 -0.486,-3.216 -0.486,-5.832c0,-2.592 0.144,-4.518 0.432,-5.778c0.288,-1.26 0.942,-2.196 1.962,-2.808c1.02,-0.612 2.634,-0.918 4.842,-0.918c2.064,0 3.552,0.294 4.464,0.882c0.912,0.588 1.488,1.5 1.728,2.736c0.24,1.236 0.36,3.186 0.36,5.85l0,0.936Zm-6.624,-8.064c-1.368,0 -2.346,0.144 -2.934,0.432c-0.588,0.288 -0.978,0.834 -1.17,1.638c-0.192,0.804 -0.288,2.118 -0.288,3.942l8.388,0l0,-0.36c0,-1.704 -0.114,-2.946 -0.342,-3.726c-0.228,-0.78 -0.612,-1.296 -1.152,-1.548c-0.54,-0.252 -1.374,-0.378 -2.502,-0.378Z" style="fill:#464646;fill-rule:nonzero;"/><path d="M163.698,113.518c-2.256,0 -3.876,-0.258 -4.86,-0.774c-0.984,-0.516 -1.614,-1.392 -1.89,-2.628c-0.276,-1.236 -0.414,-3.258 -0.414,-6.066c0,-2.808 0.138,-4.83 0.414,-6.066c0.276,-1.236 0.906,-2.112 1.89,-2.628c0.984,-0.516 2.604,-0.774 4.86,-0.774c2.256,0 3.876,0.258 4.86,0.774c0.984,0.516 1.614,1.392 1.89,2.628c0.276,1.236 0.414,3.258 0.414,6.066c0,2.808 -0.138,4.83 -0.414,6.066c-0.276,1.236 -0.906,2.112 -1.89,2.628c-0.984,0.516 -2.604,0.774 -4.86,0.774Zm0,-2.376c1.488,0 2.526,-0.162 3.114,-0.486c0.588,-0.324 0.954,-0.924 1.098,-1.8c0.144,-0.876 0.216,-2.478 0.216,-4.806c0,-2.328 -0.072,-3.93 -0.216,-4.806c-0.144,-0.876 -0.51,-1.476 -1.098,-1.8c-0.588,-0.324 -1.626,-0.486 -3.114,-0.486c-1.488,0 -2.52,0.162 -3.096,0.486c-0.576,0.324 -0.936,0.924 -1.08,1.8c-0.144,0.876 -0.216,2.478 -0.216,4.806c0,2.352 0.072,3.96 0.216,4.824c0.144,0.864 0.504,1.458 1.08,1.782c0.576,0.324 1.608,0.486 3.096,0.486Z" style="fill:#464646;fill-rule:nonzero;"/><path d="M176.91,97.246l-3.204,0l0,-2.376l3.204,0l0,-2.952c0,-1.656 0.216,-2.868 0.648,-3.636c0.432,-0.768 1.098,-1.26 1.998,-1.476c0.9,-0.216 2.286,-0.324 4.158,-0.324l0,2.16c-1.176,0 -2.04,0.066 -2.592,0.198c-0.552,0.132 -0.936,0.39 -1.152,0.774c-0.216,0.384 -0.324,0.984 -0.324,1.8l0,3.456l4.068,0l0,2.376l-4.068,0l0,15.984l-2.736,0l0,-15.984Z" style="fill:#464646;fill-rule:nonzero;"/><rect x="194.982" y="86.482" width="2.736" height="26.748" style="fill:#464646;fill-rule:nonzero;"/><path d="M203.082,89.614l0,-3.132l2.916,0l0,3.132l-2.916,0Zm0.072,23.616l0,-18.36l2.736,0l0,18.36l-2.736,0Z" style="fill:#464646;fill-rule:nonzero;"/><path d="M212.658,97.246l-3.204,0l0,-2.376l3.204,0l0,-2.952c0,-1.656 0.216,-2.868 0.648,-3.636c0.432,-0.768 1.098,-1.26 1.998,-1.476c0.9,-0.216 2.286,-0.324 4.158,-0.324l0,2.16c-1.176,0 -2.04,0.066 -2.592,0.198c-0.552,0.132 -0.936,0.39 -1.152,0.774c-0.216,0.384 -0.324,0.984 -0.324,1.8l0,3.456l4.068,0l0,2.376l-4.068,0l0,15.984l-2.736,0l0,-15.984Z" style="fill:#464646;fill-rule:nonzero;"/><path d="M236.022,104.986l-11.016,0c0,1.872 0.102,3.216 0.306,4.032c0.204,0.816 0.66,1.38 1.368,1.692c0.708,0.312 1.878,0.468 3.51,0.468c1.536,0 3.276,-0.132 5.22,-0.396l0,2.232c-0.648,0.144 -1.518,0.264 -2.61,0.36c-1.092,0.096 -2.154,0.144 -3.186,0.144c-2.208,0 -3.828,-0.282 -4.86,-0.846c-1.032,-0.564 -1.71,-1.482 -2.034,-2.754c-0.324,-1.272 -0.486,-3.216 -0.486,-5.832c0,-2.592 0.144,-4.518 0.432,-5.778c0.288,-1.26 0.942,-2.196 1.962,-2.808c1.02,-0.612 2.634,-0.918 4.842,-0.918c2.064,0 3.552,0.294 4.464,0.882c0.912,0.588 1.488,1.5 1.728,2.736c0.24,1.236 0.36,3.186 0.36,5.85l0,0.936Zm-6.624,-8.064c-1.368,0 -2.346,0.144 -2.934,0.432c-0.588,0.288 -0.978,0.834 -1.17,1.638c-0.192,0.804 -0.288,2.118 -0.288,3.942l8.388,0l0,-0.36c0,-1.704 -0.114,-2.946 -0.342,-3.726c-0.228,-0.78 -0.612,-1.296 -1.152,-1.548c-0.54,-0.252 -1.374,-0.378 -2.502,-0.378Z" style="fill:#464646;fill-rule:nonzero;"/></g><rect x="213.875" y="152.07" width="9" height="9" style="fill:#56a;"/><rect x="63.875" y="142.07" width="9" height="9" style="fill:#56a;"/><rect x="223.875" y="152.07" width="9" height="9" style="fill:#56a;"/><rect x="223.875" y="142.07" width="9" height="9" style="fill:#a0a9cf;"/><rect x="223.875" y="162.07" width="9" height="9" style="fill:#a0a9cf;"/><rect x="73.875" y="162.07" width="9" height="9" style="fill:#a0a9cf;"/><rect x="143.875" y="152.07" width="9" height="9" style="fill:#a0a9cf;"/><rect x="153.875" y="162.07" width="9" height="9" style="fill:#a0a9cf;"/><rect x="63.875" y="152.07" width="9" height="9" style="fill:#56a;"/><rect x="233.875" y="152.07" width="9" height="9" style="fill:#56a;"/><rect x="73.875" y="42.07" width="9" height="9" style="fill:#a0a9cf;"/><rect x="63.875" y="42.07" width="9" height="9" style="fill:#56a;"/><rect x="63.875" y="52.07" width="9" height="9" style="fill:#56a;"/><rect x="73.875" y="52.07" width="9" height="9" style="fill:#56a;"/><rect x="133.875" y="142.07" width="9" height="9" style="fill:#56a;"/><rect x="143.875" y="142.07" width="9" height="9" style="fill:#56a;"/><rect x="133.875" y="152.07" width="9" height="9" style="fill:#56a;"/><rect x="153.875" y="172.07" width="9" height="9" style="fill:#56a;"/><rect x="163.875" y="172.07" width="9" height="9" style="fill:#56a;"/><rect x="163.875" y="162.07" width="9" height="9" style="fill:#56a;"/><rect x="113.875" y="52.07" width="9" height="9" style="fill:#56a;"/><rect x="123.875" y="52.07" width="9" height="9" style="fill:#56a;"/><rect x="123.875" y="32.07" width="9" height="9" style="fill:#56a;"/><rect x="143.875" y="42.07" width="9" height="9" style="fill:#56a;"/><rect x="153.875" y="52.07" width="9" height="9" style="fill:#56a;"/><rect x="163.875" y="52.07" width="9" height="9" style="fill:#56a;"/><rect x="173.875" y="52.07" width="9" height="9" style="fill:#56a;"/><rect x="73.875" y="152.07" width="9" height="9" style="fill:#56a;"/><rect x="83.875" y="152.07" width="9" height="9" style="fill:#56a;"/><rect x="213.875" y="42.07" width="9" height="9" style="fill:#56a;"/><rect x="223.875" y="52.07" width="9" height="9" style="fill:#56a;"/><rect x="233.875" y="52.07" width="9" height="9" style="fill:#56a;"/><rect x="233.875" y="42.07" width="9" height="9" style="fill:#56a;"/><rect x="233.875" y="32.07" width="9" height="9" style="fill:#56a;"/><rect x="233.875" y="32.07" width="9" height="9" style="fill:#56a;"/><path d="M35.355,100l-35.355,-35.355l-35.355,35.355l35.355,35.355l35.355,-35.355Z" style="fill:#595e71;"/><path d="M335.355,100l-35.355,-35.355l-35.355,35.355l35.355,35.355l35.355,-35.355Z" style="fill:#595e71;"/></g></svg>