<?xml version="1.0" encoding="UTF-8" standalone="no"?><!DOCTYPE svg PUBLIC "-//W3C//DTD SVG 1.1//EN" "http://www.w3.org/Graphics/SVG/1.1/DTD/svg11.dtd"><svg width="100%" height="100%" viewBox="0 0 300 200" version="1.1" xmlns="http://www.w3.org/2000/svg" xmlns:xlink="http://www.w3.org/1999/xlink" xml:space="preserve" xmlns:serif="http://www.serif.com/" style="fill-rule:evenodd;clip-rule:evenodd;stroke-miterlimit:2;"><rect id="listCalc" x="0" y="0" width="300" height="200" style="fill:#fff;"/><rect x="25" y="15" width="275" height="30" style="fill:#b6d4e3;"/><rect x="25" y="65" width="275" height="30" style="fill:#b6d4e3;"/><rect x="25" y="115" width="275" height="30" style="fill:#b6d4e3;"/><rect x="0" y="170" width="300" height="30" style="fill:#ffd3a3;"/><rect x="110.113" y="20" width="35" height="20" style="fill:#e3ecf1;"/><rect x="110.113" y="70" width="35" height="20" style="fill:#e3ecf1;"/><rect x="70.113" y="20" width="35" height="20" style="fill:#e3ecf1;"/><rect x="70.113" y="70" width="35" height="20" style="fill:#e3ecf1;"/><rect x="70.113" y="120" width="35" height="20" style="fill:#e3ecf1;"/><rect x="30.113" y="20" width="35" height="20" style="fill:#fff;stroke:#2e2e2e;stroke-width:1px;"/><rect x="30.113" y="70" width="35" height="20" style="fill:#e3ecf1;"/><rect x="30.113" y="120" width="35" height="20" style="fill:#e3ecf1;"/><rect x="230.113" y="70" width="65" height="20" style="fill:#2a3e48;"/><rect x="230.113" y="120" width="65" height="20" style="fill:#2a3e48;"/><rect x="230.113" y="20" width="65" height="20" style="fill:#2a3e48;"/><path d="M14.229,33.398l-5.958,0l-1.337,3.711l-1.934,0l5.43,-14.218l1.64,0l5.44,14.218l-1.924,0l-1.357,-3.711Zm-5.391,-1.543l4.834,0l-2.422,-6.65l-2.412,6.65Z" style="fill:#c6c6c6;fill-rule:nonzero;"/><g><path d="M278.975,36.398l-1.635,0l0,-10.836l-3.278,1.204l0,-1.477l4.658,-1.749l0.255,0l0,12.858Z" style="fill:#fff;fill-rule:nonzero;"/><path d="M292.124,36.398l-8.385,0l0,-1.169l4.429,-4.921c0.657,-0.745 1.109,-1.35 1.358,-1.815c0.249,-0.466 0.374,-0.948 0.374,-1.446c0,-0.668 -0.202,-1.216 -0.607,-1.644c-0.404,-0.427 -0.943,-0.641 -1.617,-0.641c-0.808,0 -1.437,0.23 -1.885,0.69c-0.448,0.46 -0.672,1.1 -0.672,1.92l-1.626,0c0,-1.178 0.379,-2.13 1.138,-2.856c0.759,-0.727 1.774,-1.09 3.045,-1.09c1.19,0 2.13,0.312 2.822,0.936c0.691,0.624 1.037,1.454 1.037,2.492c0,1.259 -0.803,2.759 -2.408,4.5l-3.428,3.717l6.425,0l0,1.327Z" style="fill:#fff;fill-rule:nonzero;"/></g><g><path d="M48.975,36.398l-1.635,0l0,-10.836l-3.278,1.204l0,-1.477l4.658,-1.749l0.255,0l0,12.858Z" style="fill-rule:nonzero;"/><path d="M62.124,36.398l-8.385,0l0,-1.169l4.429,-4.921c0.657,-0.745 1.109,-1.35 1.358,-1.815c0.249,-0.466 0.374,-0.948 0.374,-1.446c0,-0.668 -0.202,-1.216 -0.607,-1.644c-0.404,-0.427 -0.943,-0.641 -1.617,-0.641c-0.808,0 -1.437,0.23 -1.885,0.69c-0.448,0.46 -0.672,1.1 -0.672,1.92l-1.626,0c0,-1.178 0.379,-2.13 1.138,-2.856c0.759,-0.727 1.774,-1.09 3.045,-1.09c1.19,0 2.13,0.312 2.822,0.936c0.691,0.624 1.037,1.454 1.037,2.492c0,1.259 -0.803,2.759 -2.408,4.5l-3.428,3.717l6.425,0l0,1.327Z" style="fill-rule:nonzero;"/></g><path d="M291.763,80.94c0,1.905 -0.325,3.32 -0.975,4.246c-0.651,0.925 -1.667,1.388 -3.05,1.388c-1.365,0 -2.376,-0.452 -3.032,-1.358c-0.657,-0.905 -0.996,-2.257 -1.02,-4.056l0,-2.171c0,-1.881 0.325,-3.278 0.976,-4.192c0.65,-0.914 1.67,-1.371 3.058,-1.371c1.377,0 2.391,0.441 3.041,1.323c0.651,0.881 0.985,2.242 1.002,4.082l0,2.109Zm-1.626,-2.223c0,-1.377 -0.193,-2.381 -0.58,-3.01c-0.387,-0.63 -0.999,-0.945 -1.837,-0.945c-0.832,0 -1.438,0.313 -1.819,0.94c-0.381,0.627 -0.577,1.591 -0.589,2.892l0,2.601c0,1.383 0.201,2.404 0.602,3.063c0.401,0.659 1.009,0.989 1.824,0.989c0.803,0 1.399,-0.31 1.788,-0.932c0.39,-0.621 0.594,-1.599 0.611,-2.935l0,-2.663Z" style="fill:#fff;fill-rule:nonzero;"/><path d="M291.763,130.94c0,1.905 -0.325,3.32 -0.975,4.246c-0.651,0.925 -1.667,1.388 -3.05,1.388c-1.365,0 -2.376,-0.452 -3.032,-1.358c-0.657,-0.905 -0.996,-2.257 -1.02,-4.056l0,-2.171c0,-1.881 0.325,-3.278 0.976,-4.192c0.65,-0.914 1.67,-1.371 3.058,-1.371c1.377,0 2.391,0.441 3.041,1.323c0.651,0.881 0.985,2.242 1.002,4.082l0,2.109Zm-1.626,-2.223c0,-1.377 -0.193,-2.381 -0.58,-3.01c-0.387,-0.63 -0.999,-0.945 -1.837,-0.945c-0.832,0 -1.438,0.313 -1.819,0.94c-0.381,0.627 -0.577,1.591 -0.589,2.892l0,2.601c0,1.383 0.201,2.404 0.602,3.063c0.401,0.659 1.009,0.989 1.824,0.989c0.803,0 1.399,-0.31 1.788,-0.932c0.39,-0.621 0.594,-1.599 0.611,-2.935l0,-2.663Z" style="fill:#fff;fill-rule:nonzero;"/><path d="M6.675,87.109l0,-14.218l4.648,0c1.543,0 2.704,0.319 3.482,0.957c0.778,0.638 1.167,1.582 1.167,2.832c0,0.664 -0.189,1.251 -0.567,1.762c-0.377,0.511 -0.892,0.907 -1.543,1.187c0.769,0.215 1.376,0.623 1.822,1.225c0.446,0.603 0.669,1.32 0.669,2.154c0,1.276 -0.414,2.278 -1.241,3.008c-0.827,0.729 -1.995,1.093 -3.506,1.093l-4.931,0Zm1.875,-6.65l0,5.117l3.096,0c0.872,0 1.56,-0.226 2.065,-0.679c0.504,-0.452 0.757,-1.075 0.757,-1.87c0,-1.712 -0.931,-2.568 -2.793,-2.568l-3.125,0Zm0,-1.504l2.832,0c0.82,0 1.476,-0.205 1.968,-0.615c0.491,-0.41 0.737,-0.967 0.737,-1.67c0,-0.781 -0.228,-1.349 -0.684,-1.704c-0.455,-0.355 -1.149,-0.532 -2.08,-0.532l-2.773,0l0,4.521Z" style="fill:#c6c6c6;fill-rule:nonzero;"/><path d="M16.851,132.598c-0.176,1.504 -0.731,2.664 -1.665,3.481c-0.935,0.817 -2.177,1.226 -3.726,1.226c-1.68,0 -3.026,-0.603 -4.038,-1.807c-1.012,-1.204 -1.519,-2.816 -1.519,-4.834l0,-1.367c0,-1.322 0.236,-2.484 0.708,-3.486c0.472,-1.003 1.141,-1.773 2.007,-2.31c0.866,-0.537 1.869,-0.806 3.008,-0.806c1.51,0 2.721,0.422 3.633,1.265c0.911,0.843 1.442,2.01 1.592,3.501l-1.885,0c-0.163,-1.133 -0.516,-1.953 -1.06,-2.461c-0.543,-0.508 -1.303,-0.762 -2.28,-0.762c-1.198,0 -2.137,0.443 -2.817,1.328c-0.681,0.886 -1.021,2.146 -1.021,3.78l0,1.377c0,1.543 0.322,2.77 0.967,3.681c0.644,0.912 1.546,1.367 2.705,1.367c1.042,0 1.841,-0.236 2.397,-0.708c0.557,-0.472 0.927,-1.293 1.109,-2.465l1.885,0Z" style="fill:#c6c6c6;fill-rule:nonzero;"/><g><path d="M137.368,188.398l-5.957,0l-1.338,3.711l-1.933,0l5.429,-14.218l1.641,0l5.439,14.218l-1.923,0l-1.358,-3.711Zm-5.39,-1.543l4.834,0l-2.422,-6.65l-2.412,6.65Z" style="fill:#a38362;fill-rule:nonzero;"/><path d="M149.087,182.51l-2.949,-0.879l0.449,-1.475l2.949,1.094l-0.088,-3.359l1.494,0l-0.097,3.408l2.9,-1.074l0.449,1.484l-2.998,0.889l1.934,2.646l-1.211,0.918l-1.816,-2.812l-1.758,2.744l-1.221,-0.889l1.963,-2.695Z" style="fill:#a38362;fill-rule:nonzero;"/><path d="M161.079,192.109l0,-14.218l4.649,0c1.543,0 2.703,0.319 3.481,0.957c0.778,0.638 1.167,1.582 1.167,2.832c0,0.664 -0.189,1.251 -0.566,1.762c-0.378,0.511 -0.892,0.907 -1.543,1.187c0.768,0.215 1.375,0.623 1.821,1.225c0.446,0.603 0.669,1.32 0.669,2.154c0,1.276 -0.414,2.278 -1.24,3.008c-0.827,0.729 -1.996,1.093 -3.506,1.093l-4.932,0Zm1.875,-6.65l0,5.117l3.096,0c0.872,0 1.561,-0.226 2.065,-0.679c0.505,-0.452 0.757,-1.075 0.757,-1.87c0,-1.712 -0.931,-2.568 -2.793,-2.568l-3.125,0Zm0,-1.504l2.832,0c0.82,0 1.476,-0.205 1.968,-0.615c0.491,-0.41 0.737,-0.967 0.737,-1.67c0,-0.781 -0.228,-1.349 -0.683,-1.704c-0.456,-0.355 -1.149,-0.532 -2.08,-0.532l-2.774,0l0,4.521Z" style="fill:#a38362;fill-rule:nonzero;"/></g></svg>