<?xml version="1.0" encoding="UTF-8" standalone="no"?><!DOCTYPE svg PUBLIC "-//W3C//DTD SVG 1.1//EN" "http://www.w3.org/Graphics/SVG/1.1/DTD/svg11.dtd"><svg width="100%" height="100%" viewBox="0 0 300 200" version="1.1" xmlns="http://www.w3.org/2000/svg" xmlns:xlink="http://www.w3.org/1999/xlink" xml:space="preserve" xmlns:serif="http://www.serif.com/" style="fill-rule:evenodd;clip-rule:evenodd;stroke-miterlimit:2;"><rect id="mathPDF" x="0" y="0" width="300" height="200" style="fill:#fffdf3;"/><clipPath id="_clip1"><rect x="0" y="0" width="300" height="200"/></clipPath><g clip-path="url(#_clip1)"><rect x="0" y="175.397" width="150" height="24.603" style="fill:#6387ff;"/><rect x="150" y="175.397" width="150" height="24.603" style="fill:#ff636b;"/><rect x="150" y="0" width="150" height="175.397" style="fill:#f1888e;"/><g><path d="M191.039,91.097l0,14.695l-5.461,0l0,-36.187l6.188,0c3.031,0 5.32,0.211 6.867,0.632c1.562,0.422 2.937,1.219 4.125,2.391c2.078,2.031 3.117,4.594 3.117,7.688c0,3.312 -1.109,5.937 -3.328,7.875c-2.219,1.937 -5.211,2.906 -8.977,2.906l-2.531,0Zm0,-5.063l2.039,0c5.016,0 7.524,-1.929 7.524,-5.789c0,-3.734 -2.586,-5.601 -7.758,-5.601l-1.805,0l0,11.39Z" style="fill:#fff;fill-rule:nonzero;"/><path d="M211.5,105.792l0,-36.187l7.594,0c3.64,0 6.515,0.359 8.625,1.078c2.265,0.703 4.32,1.898 6.164,3.586c3.734,3.406 5.601,7.882 5.601,13.429c0,5.563 -1.945,10.063 -5.836,13.5c-1.953,1.719 -4,2.914 -6.14,3.586c-2,0.672 -4.836,1.008 -8.508,1.008l-7.5,0Zm5.461,-5.133l2.461,0c2.453,0 4.492,-0.258 6.117,-0.773c1.625,-0.547 3.094,-1.414 4.406,-2.602c2.688,-2.453 4.032,-5.648 4.032,-9.586c0,-3.968 -1.329,-7.187 -3.985,-9.656c-2.39,-2.203 -5.914,-3.305 -10.57,-3.305l-2.461,0l0,25.922Z" style="fill:#fff;fill-rule:nonzero;"/><path d="M264.422,74.737l-12.609,0l0,8.696l12.164,0l0,5.133l-12.164,0l0,17.226l-5.461,0l0,-36.187l18.07,0l0,5.132Z" style="fill:#fff;fill-rule:nonzero;"/></g><path d="M150,-37.5l0,275" style="fill:none;stroke:#000;stroke-width:2px;"/><rect x="10" y="6.25" width="60" height="7.5" style="fill:#6387ff;"/><rect x="10" y="36.25" width="45" height="7.5" style="fill:#6387ff;"/><rect x="10" y="111.074" width="52.5" height="7.852" style="fill:#6387ff;"/><rect x="10" y="51.25" width="75" height="7.5" style="fill:#6387ff;"/><rect x="10" y="126.25" width="45" height="7.5" style="fill:#6387ff;"/><rect x="89.5" y="51.25" width="30" height="7.5" style="fill:#6387ff;"/><rect x="59.5" y="126.25" width="30" height="7.5" style="fill:#6387ff;"/><rect x="10" y="81.25" width="37.5" height="7.5" style="fill:#6387ff;"/><rect x="10" y="141.25" width="20" height="7.5" style="fill:#6387ff;"/></g></svg>