<?xml version="1.0" encoding="UTF-8" standalone="no"?><!DOCTYPE svg PUBLIC "-//W3C//DTD SVG 1.1//EN" "http://www.w3.org/Graphics/SVG/1.1/DTD/svg11.dtd"><svg width="100%" height="100%" viewBox="0 0 300 200" version="1.1" xmlns="http://www.w3.org/2000/svg" xmlns:xlink="http://www.w3.org/1999/xlink" xml:space="preserve" xmlns:serif="http://www.serif.com/" style="fill-rule:evenodd;clip-rule:evenodd;stroke-linejoin:round;stroke-miterlimit:1.41421;"><rect id="pomodoro" x="0" y="0" width="300" height="200" style="fill:#fff;"/><clipPath id="_clip1"><rect x="0" y="0" width="300" height="200"/></clipPath><g clip-path="url(#_clip1)"><path d="M313.968,83.508l-340.406,33.598l12.47,126.341l340.406,-33.598l-12.47,-126.341Z" style="fill:#ffe57b;"/><g><path d="M123.614,162.252c2.281,0 3.992,-0.213 5.132,-0.638c1.141,-0.425 1.924,-1.141 2.349,-2.146c0.425,-1.005 0.638,-2.493 0.638,-4.465c0,-2.088 -0.242,-3.615 -0.725,-4.582c-0.483,-0.966 -1.305,-1.614 -2.465,-1.942c-1.16,-0.329 -2.977,-0.493 -5.451,-0.493c-2.552,0 -5.586,0.232 -9.105,0.696l0,-21.631l21.283,0l0,5.161l-15.831,0l0,11.135c0.889,-0.155 2,-0.281 3.334,-0.377c1.334,-0.097 2.542,-0.145 3.625,-0.145c3.092,0 5.46,0.435 7.103,1.304c1.644,0.87 2.765,2.127 3.364,3.77c0.599,1.643 0.899,3.818 0.899,6.524c0,3.247 -0.367,5.789 -1.102,7.626c-0.735,1.836 -2.068,3.189 -4.001,4.059c-1.933,0.87 -4.717,1.305 -8.351,1.305c-1.663,0 -3.509,-0.097 -5.538,-0.29c-2.03,-0.193 -3.76,-0.445 -5.191,-0.754l0,-4.755c3.635,0.425 6.979,0.638 10.033,0.638Z" style="fill:#464646;fill-rule:nonzero;"/><path d="M144.259,143.694l0,-6.321l6.321,0l0,6.321l-6.321,0Zm0,23.255l0,-6.321l6.321,0l0,6.321l-6.321,0Z" style="fill:#464646;fill-rule:nonzero;"/><path d="M161.656,165.789c-1.817,-1.082 -2.967,-2.938 -3.45,-5.567c-0.483,-2.629 -0.725,-7.036 -0.725,-13.222c0,-6.186 0.242,-10.593 0.725,-13.222c0.483,-2.629 1.633,-4.485 3.45,-5.567c1.817,-1.083 4.872,-1.624 9.163,-1.624c4.33,0 7.394,0.541 9.191,1.624c1.798,1.082 2.939,2.928 3.422,5.538c0.483,2.61 0.725,7.027 0.725,13.251c0,6.186 -0.242,10.593 -0.725,13.222c-0.483,2.629 -1.633,4.485 -3.451,5.567c-1.817,1.083 -4.871,1.624 -9.162,1.624c-4.291,0 -7.346,-0.541 -9.163,-1.624Zm14.353,-4.32c0.909,-0.522 1.498,-1.74 1.769,-3.654c0.27,-1.913 0.406,-5.518 0.406,-10.815c0,-5.297 -0.136,-8.902 -0.406,-10.815c-0.271,-1.914 -0.86,-3.132 -1.769,-3.654c-0.908,-0.522 -2.639,-0.783 -5.19,-0.783c-2.552,0 -4.282,0.261 -5.19,0.783c-0.909,0.522 -1.498,1.74 -1.769,3.654c-0.271,1.913 -0.406,5.518 -0.406,10.815c0,5.297 0.135,8.902 0.406,10.815c0.271,1.914 0.86,3.132 1.769,3.654c0.908,0.522 2.638,0.783 5.19,0.783c2.551,0 4.282,-0.261 5.19,-0.783Z" style="fill:#464646;fill-rule:nonzero;"/><path d="M195.175,165.789c-1.817,-1.082 -2.967,-2.938 -3.45,-5.567c-0.484,-2.629 -0.725,-7.036 -0.725,-13.222c0,-6.186 0.241,-10.593 0.725,-13.222c0.483,-2.629 1.633,-4.485 3.45,-5.567c1.817,-1.083 4.871,-1.624 9.163,-1.624c4.33,0 7.394,0.541 9.191,1.624c1.798,1.082 2.939,2.928 3.422,5.538c0.483,2.61 0.725,7.027 0.725,13.251c0,6.186 -0.242,10.593 -0.725,13.222c-0.483,2.629 -1.633,4.485 -3.451,5.567c-1.817,1.083 -4.871,1.624 -9.162,1.624c-4.292,0 -7.346,-0.541 -9.163,-1.624Zm14.353,-4.32c0.909,-0.522 1.498,-1.74 1.769,-3.654c0.27,-1.913 0.406,-5.518 0.406,-10.815c0,-5.297 -0.136,-8.902 -0.406,-10.815c-0.271,-1.914 -0.86,-3.132 -1.769,-3.654c-0.908,-0.522 -2.639,-0.783 -5.19,-0.783c-2.552,0 -4.282,0.261 -5.19,0.783c-0.909,0.522 -1.498,1.74 -1.769,3.654c-0.271,1.913 -0.406,5.518 -0.406,10.815c0,5.297 0.135,8.902 0.406,10.815c0.271,1.914 0.86,3.132 1.769,3.654c0.908,0.522 2.638,0.783 5.19,0.783c2.551,0 4.282,-0.261 5.19,-0.783Z" style="fill:#464646;fill-rule:nonzero;"/></g><g><path d="M88.123,67.788l18.442,0l0,5.161l-24.241,0l0,-4.871c0,-3.325 0.106,-5.77 0.319,-7.336c0.213,-1.566 0.725,-2.861 1.537,-3.886c0.812,-1.024 2.146,-1.981 4.001,-2.87l8.583,-4.118c1.624,-0.773 2.677,-1.565 3.161,-2.377c0.483,-0.812 0.724,-2.127 0.724,-3.944c0,-1.701 -0.222,-2.957 -0.666,-3.769c-0.445,-0.812 -1.199,-1.353 -2.262,-1.624c-1.063,-0.27 -2.677,-0.406 -4.842,-0.406c-2.745,0 -6.032,0.232 -9.859,0.696l0,-4.813c1.508,-0.309 3.364,-0.561 5.567,-0.754c2.204,-0.193 4.234,-0.29 6.089,-0.29c2.591,0 4.717,0.232 6.379,0.696c1.663,0.464 2.997,1.459 4.002,2.987c1.005,1.527 1.508,3.779 1.508,6.755c0,2.281 -0.203,4.118 -0.609,5.51c-0.406,1.391 -1.044,2.503 -1.914,3.334c-0.87,0.831 -2.059,1.614 -3.567,2.349l-9.51,4.523c-1.083,0.503 -1.817,1.083 -2.204,1.74c-0.232,0.464 -0.396,1.063 -0.493,1.798c-0.096,0.734 -0.145,1.797 -0.145,3.189l0,2.32Z" style="fill:#ff5042;fill-rule:nonzero;"/><path d="M123.614,68.252c2.281,0 3.992,-0.213 5.132,-0.638c1.141,-0.425 1.924,-1.141 2.349,-2.146c0.425,-1.005 0.638,-2.493 0.638,-4.465c0,-2.088 -0.242,-3.615 -0.725,-4.582c-0.483,-0.966 -1.305,-1.614 -2.465,-1.942c-1.16,-0.329 -2.977,-0.493 -5.451,-0.493c-2.552,0 -5.586,0.232 -9.105,0.696l0,-21.631l21.283,0l0,5.161l-15.831,0l0,11.135c0.889,-0.155 2,-0.281 3.334,-0.377c1.334,-0.097 2.542,-0.145 3.625,-0.145c3.092,0 5.46,0.435 7.103,1.304c1.644,0.87 2.765,2.127 3.364,3.77c0.599,1.643 0.899,3.818 0.899,6.524c0,3.247 -0.367,5.789 -1.102,7.626c-0.735,1.836 -2.068,3.189 -4.001,4.059c-1.933,0.87 -4.717,1.305 -8.351,1.305c-1.663,0 -3.509,-0.097 -5.538,-0.29c-2.03,-0.193 -3.76,-0.445 -5.191,-0.754l0,-4.755c3.635,0.425 6.979,0.638 10.033,0.638Z" style="fill:#ff5042;fill-rule:nonzero;"/><path d="M144.259,49.694l0,-6.321l6.321,0l0,6.321l-6.321,0Zm0,23.255l0,-6.321l6.321,0l0,6.321l-6.321,0Z" style="fill:#ff5042;fill-rule:nonzero;"/><path d="M161.656,71.789c-1.817,-1.082 -2.967,-2.938 -3.45,-5.567c-0.483,-2.629 -0.725,-7.036 -0.725,-13.222c0,-6.186 0.242,-10.593 0.725,-13.222c0.483,-2.629 1.633,-4.485 3.45,-5.567c1.817,-1.083 4.872,-1.624 9.163,-1.624c4.33,0 7.394,0.541 9.191,1.624c1.798,1.082 2.939,2.928 3.422,5.538c0.483,2.61 0.725,7.027 0.725,13.251c0,6.186 -0.242,10.593 -0.725,13.222c-0.483,2.629 -1.633,4.485 -3.451,5.567c-1.817,1.083 -4.871,1.624 -9.162,1.624c-4.291,0 -7.346,-0.541 -9.163,-1.624Zm14.353,-4.32c0.909,-0.522 1.498,-1.74 1.769,-3.654c0.27,-1.913 0.406,-5.518 0.406,-10.815c0,-5.297 -0.136,-8.902 -0.406,-10.815c-0.271,-1.914 -0.86,-3.132 -1.769,-3.654c-0.908,-0.522 -2.639,-0.783 -5.19,-0.783c-2.552,0 -4.282,0.261 -5.19,0.783c-0.909,0.522 -1.498,1.74 -1.769,3.654c-0.271,1.913 -0.406,5.518 -0.406,10.815c0,5.297 0.135,8.902 0.406,10.815c0.271,1.914 0.86,3.132 1.769,3.654c0.908,0.522 2.638,0.783 5.19,0.783c2.551,0 4.282,-0.261 5.19,-0.783Z" style="fill:#ff5042;fill-rule:nonzero;"/><path d="M195.175,71.789c-1.817,-1.082 -2.967,-2.938 -3.45,-5.567c-0.484,-2.629 -0.725,-7.036 -0.725,-13.222c0,-6.186 0.241,-10.593 0.725,-13.222c0.483,-2.629 1.633,-4.485 3.45,-5.567c1.817,-1.083 4.871,-1.624 9.163,-1.624c4.33,0 7.394,0.541 9.191,1.624c1.798,1.082 2.939,2.928 3.422,5.538c0.483,2.61 0.725,7.027 0.725,13.251c0,6.186 -0.242,10.593 -0.725,13.222c-0.483,2.629 -1.633,4.485 -3.451,5.567c-1.817,1.083 -4.871,1.624 -9.162,1.624c-4.292,0 -7.346,-0.541 -9.163,-1.624Zm14.353,-4.32c0.909,-0.522 1.498,-1.74 1.769,-3.654c0.27,-1.913 0.406,-5.518 0.406,-10.815c0,-5.297 -0.136,-8.902 -0.406,-10.815c-0.271,-1.914 -0.86,-3.132 -1.769,-3.654c-0.908,-0.522 -2.639,-0.783 -5.19,-0.783c-2.552,0 -4.282,0.261 -5.19,0.783c-0.909,0.522 -1.498,1.74 -1.769,3.654c-0.271,1.913 -0.406,5.518 -0.406,10.815c0,5.297 0.135,8.902 0.406,10.815c0.271,1.914 0.86,3.132 1.769,3.654c0.908,0.522 2.638,0.783 5.19,0.783c2.551,0 4.282,-0.261 5.19,-0.783Z" style="fill:#ff5042;fill-rule:nonzero;"/></g><g><path d="M234.857,66.82l-2.064,-8.328l-0.168,0l-2.064,8.328l-2.832,0l-3.168,-12.24l2.376,0l2.208,9.432l0.168,0l2.304,-9.432l2.256,0l2.328,9.432l0.168,0l2.16,-9.432l2.328,0l-3.192,12.24l-2.808,0Z" style="fill:#ff5042;fill-rule:nonzero;"/><path d="M243.965,66.484c-0.664,-0.352 -1.092,-0.94 -1.284,-1.764c-0.192,-0.824 -0.288,-2.164 -0.288,-4.02c0,-1.856 0.096,-3.2 0.288,-4.032c0.192,-0.832 0.62,-1.42 1.284,-1.764c0.664,-0.344 1.764,-0.516 3.3,-0.516c1.536,0 2.636,0.172 3.3,0.516c0.664,0.344 1.092,0.932 1.284,1.764c0.192,0.832 0.288,2.176 0.288,4.032c0,1.856 -0.096,3.196 -0.288,4.02c-0.192,0.824 -0.62,1.412 -1.284,1.764c-0.664,0.352 -1.764,0.528 -3.3,0.528c-1.536,0 -2.636,-0.176 -3.3,-0.528Zm5.1,-1.728c0.336,-0.192 0.544,-0.56 0.624,-1.104c0.08,-0.544 0.12,-1.528 0.12,-2.952c0,-1.44 -0.04,-2.428 -0.12,-2.964c-0.08,-0.536 -0.288,-0.9 -0.624,-1.092c-0.336,-0.192 -0.936,-0.288 -1.8,-0.288c-0.848,0 -1.44,0.096 -1.776,0.288c-0.336,0.192 -0.544,0.556 -0.624,1.092c-0.08,0.536 -0.12,1.524 -0.12,2.964c0,1.424 0.04,2.408 0.12,2.952c0.08,0.544 0.288,0.912 0.624,1.104c0.336,0.192 0.928,0.288 1.776,0.288c0.864,0 1.464,-0.096 1.8,-0.288Z" style="fill:#ff5042;fill-rule:nonzero;"/><path d="M255.041,54.58l2.112,0l0.096,2.208l0.168,0c0.256,-0.912 0.676,-1.54 1.26,-1.884c0.584,-0.344 1.356,-0.516 2.316,-0.516l0,2.328c-0.944,0 -1.68,0.16 -2.208,0.48c-0.528,0.32 -0.896,0.812 -1.104,1.476c-0.208,0.664 -0.312,1.572 -0.312,2.724l0,5.424l-2.328,0l0,-12.24Z" style="fill:#ff5042;fill-rule:nonzero;"/><path d="M269.969,66.82l-3.288,-5.184l-1.2,0l0,5.184l-2.328,0l0,-17.832l2.328,0l0,10.68l1.2,0l3.288,-5.088l2.52,0l-3.936,5.904l4.032,6.336l-2.616,0Z" style="fill:#ff5042;fill-rule:nonzero;"/><path d="M275.249,68.512c0.176,-0.2 0.264,-0.628 0.264,-1.284l0,-0.408l-1.032,0l0,-2.616l2.64,0l0,2.064c0,1.04 -0.072,1.804 -0.216,2.292c-0.144,0.488 -0.42,0.832 -0.828,1.032c-0.408,0.2 -1.06,0.3 -1.956,0.3l0,-1.08c0.576,0 0.952,-0.1 1.128,-0.3Z" style="fill:#ff5042;fill-rule:nonzero;"/></g><g><path d="M228.197,160.64c-0.568,-0.248 -0.988,-0.724 -1.26,-1.428l-0.168,0l-0.096,1.608l-2.112,0l0,-17.832l2.328,0l0,7.008l0.144,0c0.288,-0.592 0.7,-1.008 1.236,-1.248c0.536,-0.24 1.22,-0.36 2.052,-0.36c1.008,0 1.78,0.188 2.316,0.564c0.536,0.376 0.92,1.012 1.152,1.908c0.232,0.896 0.348,2.176 0.348,3.84c0,1.664 -0.12,2.948 -0.36,3.852c-0.24,0.904 -0.636,1.54 -1.188,1.908c-0.552,0.368 -1.332,0.552 -2.34,0.552c-0.8,0 -1.484,-0.124 -2.052,-0.372Zm2.784,-1.98c0.328,-0.176 0.548,-0.548 0.66,-1.116c0.112,-0.568 0.168,-1.516 0.168,-2.844c0,-1.328 -0.056,-2.272 -0.168,-2.832c-0.112,-0.56 -0.332,-0.932 -0.66,-1.116c-0.328,-0.184 -0.876,-0.276 -1.644,-0.276c-0.56,0 -1.004,0.084 -1.332,0.252c-0.328,0.168 -0.572,0.436 -0.732,0.804c-0.16,0.336 -0.264,0.744 -0.312,1.224c-0.048,0.48 -0.072,1.128 -0.072,1.944c0,0.784 0.024,1.416 0.072,1.896c0.048,0.48 0.144,0.888 0.288,1.224c0.16,0.384 0.404,0.664 0.732,0.84c0.328,0.176 0.78,0.264 1.356,0.264c0.768,0 1.316,-0.088 1.644,-0.264Z" style="fill:#464646;fill-rule:nonzero;"/><path d="M237.041,148.58l2.112,0l0.096,2.208l0.168,0c0.256,-0.912 0.676,-1.54 1.26,-1.884c0.584,-0.344 1.356,-0.516 2.316,-0.516l0,2.328c-0.944,0 -1.68,0.16 -2.208,0.48c-0.528,0.32 -0.896,0.812 -1.104,1.476c-0.208,0.664 -0.312,1.572 -0.312,2.724l0,5.424l-2.328,0l0,-12.24Z" style="fill:#464646;fill-rule:nonzero;"/><path d="M254.009,155.468l-7.056,0c0,1.12 0.06,1.912 0.18,2.376c0.12,0.464 0.4,0.784 0.84,0.96c0.44,0.176 1.18,0.264 2.22,0.264c0.864,0 2,-0.08 3.408,-0.24l0,1.824c-0.448,0.112 -1.04,0.2 -1.776,0.264c-0.736,0.064 -1.448,0.096 -2.136,0.096c-1.52,0 -2.636,-0.196 -3.348,-0.588c-0.712,-0.392 -1.18,-1.012 -1.404,-1.86c-0.224,-0.848 -0.336,-2.128 -0.336,-3.84c0,-1.68 0.104,-2.948 0.312,-3.804c0.208,-0.856 0.656,-1.492 1.344,-1.908c0.688,-0.416 1.768,-0.624 3.24,-0.624c1.424,0 2.452,0.204 3.084,0.612c0.632,0.408 1.028,1.024 1.188,1.848c0.16,0.824 0.24,2.108 0.24,3.852l0,0.768Zm-6.204,-4.872c-0.328,0.176 -0.548,0.496 -0.66,0.96c-0.112,0.464 -0.176,1.224 -0.192,2.28l4.8,0l0,-0.12c0,-1.024 -0.064,-1.768 -0.192,-2.232c-0.128,-0.464 -0.348,-0.772 -0.66,-0.924c-0.312,-0.152 -0.796,-0.228 -1.452,-0.228c-0.768,0 -1.316,0.088 -1.644,0.264Z" style="fill:#464646;fill-rule:nonzero;"/><path d="M257.069,160.196c-0.552,-0.544 -0.828,-1.472 -0.828,-2.784c0,-0.944 0.104,-1.68 0.312,-2.208c0.208,-0.528 0.56,-0.912 1.056,-1.152c0.496,-0.24 1.192,-0.36 2.088,-0.36c0.816,0 1.992,0.032 3.528,0.096l0,-0.648c0,-0.896 -0.072,-1.528 -0.216,-1.896c-0.144,-0.368 -0.416,-0.608 -0.816,-0.72c-0.4,-0.112 -1.072,-0.168 -2.016,-0.168c-0.448,0 -1.008,0.024 -1.68,0.072c-0.672,0.048 -1.192,0.104 -1.56,0.168l0,-1.872c1.2,-0.224 2.528,-0.336 3.984,-0.336c1.328,0 2.32,0.152 2.976,0.456c0.656,0.304 1.096,0.788 1.32,1.452c0.224,0.664 0.336,1.628 0.336,2.892l0,7.632l-2.112,0l-0.096,-1.584l-0.144,0c-0.304,0.704 -0.764,1.176 -1.38,1.416c-0.616,0.24 -1.332,0.36 -2.148,0.36c-1.184,0 -2.052,-0.272 -2.604,-0.816Zm4.956,-1.32c0.352,-0.128 0.624,-0.368 0.816,-0.72c0.256,-0.512 0.384,-1.264 0.384,-2.256l0,-0.576l-2.952,0c-0.496,0 -0.864,0.044 -1.104,0.132c-0.24,0.088 -0.408,0.264 -0.504,0.528c-0.096,0.264 -0.144,0.676 -0.144,1.236c0,0.528 0.052,0.92 0.156,1.176c0.104,0.256 0.304,0.432 0.6,0.528c0.296,0.096 0.756,0.144 1.38,0.144c0.56,0 1.016,-0.064 1.368,-0.192Z" style="fill:#464646;fill-rule:nonzero;"/><path d="M275.681,160.82l-3.288,-5.184l-1.2,0l0,5.184l-2.328,0l0,-17.832l2.328,0l0,10.68l1.2,0l3.288,-5.088l2.52,0l-3.936,5.904l4.032,6.336l-2.616,0Z" style="fill:#464646;fill-rule:nonzero;"/></g><g><path d="M52.431,160.82l0,-10.272l-2.088,0l0,-1.968l2.088,0l0,-3.552l2.328,0l0,3.552l2.472,0l0,1.968l-2.472,0l0,10.272l-2.328,0Z" style="fill:#464646;fill-rule:nonzero;"/><path d="M66.423,154.004c0,-1.12 -0.052,-1.916 -0.156,-2.388c-0.104,-0.472 -0.3,-0.78 -0.588,-0.924c-0.288,-0.144 -0.784,-0.216 -1.488,-0.216c-0.736,0 -1.28,0.144 -1.632,0.432c-0.352,0.288 -0.576,0.704 -0.672,1.248c-0.096,0.544 -0.144,1.32 -0.144,2.328l0,6.336l-2.328,0l0,-17.832l2.328,0l0,7.08l0.144,0c0.256,-0.544 0.648,-0.956 1.176,-1.236c0.528,-0.28 1.24,-0.42 2.136,-0.42c0.992,0 1.744,0.164 2.256,0.492c0.512,0.328 0.856,0.82 1.032,1.476c0.176,0.656 0.264,1.56 0.264,2.712l0,7.728l-2.328,0l0,-6.816Z" style="fill:#464646;fill-rule:nonzero;"/><path d="M81.015,155.468l-7.056,0c0,1.12 0.06,1.912 0.18,2.376c0.12,0.464 0.4,0.784 0.84,0.96c0.44,0.176 1.18,0.264 2.22,0.264c0.864,0 2,-0.08 3.408,-0.24l0,1.824c-0.448,0.112 -1.04,0.2 -1.776,0.264c-0.736,0.064 -1.448,0.096 -2.136,0.096c-1.52,0 -2.636,-0.196 -3.348,-0.588c-0.712,-0.392 -1.18,-1.012 -1.404,-1.86c-0.224,-0.848 -0.336,-2.128 -0.336,-3.84c0,-1.68 0.104,-2.948 0.312,-3.804c0.208,-0.856 0.656,-1.492 1.344,-1.908c0.688,-0.416 1.768,-0.624 3.24,-0.624c1.424,0 2.452,0.204 3.084,0.612c0.632,0.408 1.028,1.024 1.188,1.848c0.16,0.824 0.24,2.108 0.24,3.852l0,0.768Zm-6.204,-4.872c-0.328,0.176 -0.548,0.496 -0.66,0.96c-0.112,0.464 -0.176,1.224 -0.192,2.28l4.8,0l0,-0.12c0,-1.024 -0.064,-1.768 -0.192,-2.232c-0.128,-0.464 -0.348,-0.772 -0.66,-0.924c-0.312,-0.152 -0.796,-0.228 -1.452,-0.228c-0.768,0 -1.316,0.088 -1.644,0.264Z" style="fill:#464646;fill-rule:nonzero;"/><path d="M90.927,154.004c0,-1.12 -0.052,-1.916 -0.156,-2.388c-0.104,-0.472 -0.3,-0.78 -0.588,-0.924c-0.288,-0.144 -0.784,-0.216 -1.488,-0.216c-0.736,0 -1.28,0.144 -1.632,0.432c-0.352,0.288 -0.576,0.704 -0.672,1.248c-0.096,0.544 -0.144,1.32 -0.144,2.328l0,6.336l-2.328,0l0,-12.24l2.112,0l0.096,1.632l0.168,0c0.256,-0.592 0.656,-1.044 1.2,-1.356c0.544,-0.312 1.28,-0.468 2.208,-0.468c1.008,0 1.764,0.164 2.268,0.492c0.504,0.328 0.844,0.82 1.02,1.476c0.176,0.656 0.264,1.568 0.264,2.736l0,7.728l-2.328,0l0,-6.816Z" style="fill:#464646;fill-rule:nonzero;"/></g><g><rect x="5" y="5" width="15" height="2" style="fill:#626262;"/><rect x="5" y="10" width="15" height="2" style="fill:#626262;"/><rect x="5" y="15" width="15" height="2" style="fill:#626262;"/></g><path d="M162.996,100l-25.992,12.996l0,-25.992l25.992,12.996Z" style="fill:#3b3b3b;fill-opacity:0.8;"/></g></svg>