<?xml version="1.0" encoding="UTF-8" standalone="no"?><!DOCTYPE svg PUBLIC "-//W3C//DTD SVG 1.1//EN" "http://www.w3.org/Graphics/SVG/1.1/DTD/svg11.dtd"><svg width="100%" height="100%" viewBox="0 0 300 200" version="1.1" xmlns="http://www.w3.org/2000/svg" xmlns:xlink="http://www.w3.org/1999/xlink" xml:space="preserve" style="fill-rule:evenodd;clip-rule:evenodd;stroke-linejoin:round;stroke-miterlimit:1.41421;"><rect id="trafficWave" x="0" y="0" width="300" height="200" style="fill:#fff6f3;"/><g><path d="M86.025,98.23l0,12.939l-2.275,0l0,-12.939l-3.467,0l0,-2.139l9.199,0l0,2.139l-3.457,0Z" style="fill:#434343;fill-rule:nonzero;"/><path d="M96.621,104.744l4.668,6.425l-2.783,0l-4.307,-6.171l-0.41,0l0,6.171l-2.275,0l0,-15.078l2.666,0c1.992,0 3.431,0.375 4.316,1.123c0.977,0.834 1.465,1.934 1.465,3.301c0,1.068 -0.306,1.986 -0.918,2.754c-0.612,0.768 -1.419,1.26 -2.422,1.475Zm-2.832,-1.729l0.723,0c2.155,0 3.232,-0.823 3.232,-2.471c0,-1.543 -1.048,-2.314 -3.144,-2.314l-0.811,0l0,4.785Z" style="fill:#434343;fill-rule:nonzero;"/><path d="M112.412,107.507l-6.455,0l-1.68,3.662l-2.451,0l7.461,-16.025l7.197,16.025l-2.49,0l-1.582,-3.662Zm-0.928,-2.138l-2.236,-5.127l-2.344,5.127l4.58,0Z" style="fill:#434343;fill-rule:nonzero;"/><path d="M125.898,98.23l-5.253,0l0,3.623l5.068,0l0,2.139l-5.068,0l0,7.177l-2.276,0l0,-15.078l7.529,0l0,2.139Z" style="fill:#434343;fill-rule:nonzero;"/><path d="M136.064,98.23l-5.253,0l0,3.623l5.068,0l0,2.139l-5.068,0l0,7.177l-2.276,0l0,-15.078l7.529,0l0,2.139Z" style="fill:#434343;fill-rule:nonzero;"/><rect x="138.701" y="96.091" width="2.275" height="15.078" style="fill:#434343;fill-rule:nonzero;"/><path d="M155.742,96.902l0,2.695c-1.315,-1.1 -2.676,-1.65 -4.082,-1.65c-1.549,0 -2.855,0.556 -3.916,1.67c-1.068,1.106 -1.601,2.461 -1.601,4.062c0,1.582 0.533,2.917 1.601,4.004c1.068,1.087 2.376,1.631 3.926,1.631c0.801,0 1.481,-0.13 2.041,-0.391c0.312,-0.13 0.636,-0.306 0.972,-0.527c0.335,-0.221 0.688,-0.488 1.059,-0.801l0,2.744c-1.302,0.736 -2.669,1.104 -4.101,1.104c-2.155,0 -3.995,-0.752 -5.518,-2.256c-1.517,-1.517 -2.275,-3.346 -2.275,-5.488c0,-1.921 0.634,-3.633 1.904,-5.137c1.562,-1.842 3.584,-2.764 6.064,-2.764c1.355,0 2.663,0.368 3.926,1.104Z" style="fill:#434343;fill-rule:nonzero;"/><path d="M165.527,96.091l3.926,10.078l4.102,-10.81l3.925,10.81l4.17,-10.078l2.471,0l-6.738,16.035l-3.877,-10.683l-4.043,10.693l-6.406,-16.045l2.47,0Z" style="fill:#434343;fill-rule:nonzero;"/><path d="M193.574,107.507l-6.455,0l-1.68,3.662l-2.451,0l7.461,-16.025l7.197,16.025l-2.49,0l-1.582,-3.662Zm-0.928,-2.138l-2.236,-5.127l-2.344,5.127l4.58,0Z" style="fill:#434343;fill-rule:nonzero;"/><path d="M199.111,96.091l4.17,10.45l4.229,-10.45l2.49,0l-6.768,16.211l-6.611,-16.211l2.49,0Z" style="fill:#434343;fill-rule:nonzero;"/><path d="M220.195,98.23l-6.045,0l0,3.623l5.87,0l0,2.139l-5.87,0l0,5.039l6.045,0l0,2.138l-8.32,0l0,-15.078l8.32,0l0,2.139Z" style="fill:#434343;fill-rule:nonzero;"/></g><path d="M146.316,18.424c-0.433,0.02 -0.866,0.042 -1.299,0.068c-0.346,0.021 -0.693,0.044 -1.039,0.069c-1.889,0.141 -3.773,0.341 -5.648,0.61c-2.104,0.302 -4.194,0.689 -6.269,1.151l-0.154,0.035l-1.105,-4.877c0.405,-0.091 0.81,-0.18 1.216,-0.266c2.391,-0.502 4.801,-0.909 7.225,-1.209c2.185,-0.271 4.38,-0.455 6.579,-0.564l0.265,-0.012c0.076,1.665 0.153,3.33 0.229,4.995Z" style="fill:#ff001c;"/><path d="M150.28,13.342c2.68,0.013 5.358,0.14 8.026,0.394c2.353,0.224 4.695,0.548 7.023,0.961l0.037,0.006l-0.888,4.921c-0.345,-0.062 -0.69,-0.121 -1.036,-0.179c-2.117,-0.347 -4.246,-0.619 -6.384,-0.802c-2.349,-0.201 -4.705,-0.297 -7.062,-0.301l0.008,-5c0.092,0 0.184,0 0.276,0Z" style="fill:#ff001c;"/><path d="M142.055,181.286c2.364,0.227 4.735,0.356 7.11,0.378c2.41,0.022 4.818,-0.067 7.221,-0.253l0.069,-0.006l0.404,4.984c-0.392,0.032 -0.785,0.059 -1.178,0.086c-2.184,0.142 -4.373,0.209 -6.562,0.189c-2.521,-0.024 -5.039,-0.161 -7.548,-0.401l-0.14,-0.014l0.492,-4.976c0.044,0.004 0.088,0.009 0.132,0.013Z"/><path d="M199.921,170.842c-2.769,1.956 -5.653,3.749 -8.633,5.366c-1.481,0.803 -2.985,1.559 -4.509,2.276l-0.203,0.095l-2.114,-4.531c0.368,-0.172 0.736,-0.347 1.102,-0.523c2.171,-1.055 4.298,-2.2 6.369,-3.441c1.702,-1.02 3.364,-2.105 4.988,-3.244l0.116,-0.082c0.961,1.362 1.923,2.723 2.884,4.084Z"/><path d="M101.659,165.791c0.33,0.241 0.66,0.481 0.993,0.718c0.333,0.237 0.667,0.471 1.003,0.704c1.751,1.204 3.544,2.345 5.381,3.412c1.628,0.946 3.289,1.833 4.976,2.668l0.072,0.035l-2.202,4.489c-0.339,-0.166 -0.676,-0.335 -1.012,-0.506c-2.32,-1.182 -4.589,-2.459 -6.796,-3.841c-1.837,-1.149 -3.627,-2.37 -5.375,-3.649l-0.008,-0.006c0.989,-1.341 1.626,-5.013 2.968,-4.024Z"/><path d="M226.419,140.856c-1.617,3.014 -3.411,5.933 -5.371,8.736c-0.943,1.35 -1.927,2.672 -2.943,3.967l-0.148,0.187l-3.925,-3.097c0.25,-0.317 0.499,-0.636 0.745,-0.956c1.342,-1.752 2.617,-3.555 3.816,-5.408c1.202,-1.857 2.325,-3.763 3.375,-5.709l0.044,-0.083c1.469,0.787 2.938,1.575 4.407,2.363Z"/><path d="M78.127,138.751c1.092,2.014 2.262,3.984 3.516,5.901c1.342,2.051 2.777,4.039 4.294,5.965l0.152,0.191l-3.92,3.104c-0.267,-0.337 -0.532,-0.675 -0.795,-1.016c-1.479,-1.924 -2.883,-3.905 -4.199,-5.944c-1.224,-1.896 -2.371,-3.84 -3.447,-5.824l-0.048,-0.089l4.403,-2.369c0.015,0.027 0.029,0.054 0.044,0.081Z"/><path d="M69.111,111.309c0.316,2.237 0.717,4.461 1.215,6.665c0.549,2.428 1.212,4.828 1.978,7.195l0.047,0.143l-4.753,1.552c-0.125,-0.383 -0.248,-0.767 -0.368,-1.152c-0.731,-2.358 -1.368,-4.744 -1.896,-7.154c-0.476,-2.171 -0.864,-4.359 -1.175,-6.559l-0.023,-0.168l4.953,-0.681c0.007,0.053 0.015,0.106 0.022,0.159Zm166.811,0.107c-0.478,3.641 -1.195,7.251 -2.137,10.8c-0.363,1.364 -0.761,2.719 -1.187,4.065l-0.061,0.188l-4.761,-1.526c0.121,-0.377 0.238,-0.754 0.355,-1.132c0.629,-2.074 1.182,-4.17 1.647,-6.287c0.488,-2.219 0.877,-4.458 1.18,-6.71l0.007,-0.048c1.652,0.217 3.304,0.433 4.957,0.65Zm-165.287,-30.69c-0.085,0.351 -0.167,0.704 -0.248,1.057c-0.077,0.338 -0.151,0.676 -0.224,1.014c-0.511,2.395 -0.92,4.811 -1.22,7.242c-0.203,1.644 -0.353,3.294 -0.459,4.947l-0.007,0.117l-4.991,-0.303c0.025,-0.41 0.053,-0.819 0.083,-1.228c0.178,-2.314 0.441,-4.62 0.797,-6.913c0.369,-2.371 0.838,-4.724 1.397,-7.057l0.013,-0.054c1.62,0.393 3.239,0.785 4.859,1.178Zm163.506,-1.464c0.652,2.67 1.183,5.367 1.583,8.085c0.338,2.3 0.581,4.611 0.74,6.93l0.006,0.092l-4.99,0.326c-0.025,-0.378 -0.053,-0.755 -0.082,-1.133c-0.17,-2.095 -0.413,-4.184 -0.739,-6.262c-0.36,-2.3 -0.821,-4.583 -1.374,-6.845l-0.031,-0.128l4.854,-1.198c0.011,0.044 0.022,0.089 0.033,0.133Z" style="fill:#ffb800;"/><path d="M221.611,51.213c1.478,2.173 2.866,4.407 4.144,6.704c1.202,2.159 2.306,4.369 3.322,6.621l0.003,0.008l-4.564,2.041c-0.171,-0.381 -0.346,-0.76 -0.522,-1.138c-0.918,-1.954 -1.906,-3.873 -2.973,-5.75c-1.102,-1.936 -2.286,-3.824 -3.539,-5.666l-0.079,-0.115l4.124,-2.827c0.028,0.041 0.056,0.081 0.084,0.122Z" style="fill:#ff8b00;"/><path d="M78.19,51.213c-1.478,2.173 -2.865,4.407 -4.144,6.704c-1.201,2.159 -2.306,4.369 -3.322,6.621l-0.003,0.008l4.565,2.041c0.17,-0.381 0.345,-0.76 0.521,-1.138c0.918,-1.954 1.906,-3.873 2.973,-5.75c1.102,-1.936 2.286,-3.824 3.539,-5.666l0.079,-0.115l-4.124,-2.827c-0.028,0.041 -0.056,0.081 -0.084,0.122Z" style="fill:#ff8b00;"/><path d="M199.981,29.242c2.262,1.605 4.451,3.309 6.553,5.119c1.773,1.527 3.482,3.127 5.13,4.789l0.045,0.046l-3.561,3.51c-0.3,-0.305 -0.603,-0.606 -0.908,-0.906c-1.577,-1.544 -3.21,-3.028 -4.903,-4.442c-1.693,-1.415 -3.444,-2.757 -5.243,-4.033l-0.03,-0.021l2.881,-4.087c0.012,0.009 0.024,0.017 0.036,0.025Z" style="fill:#ff4600;"/><path d="M172.148,16.219c2.38,0.634 4.734,1.363 7.052,2.196c2.469,0.886 4.893,1.888 7.272,2.991l0.137,0.064l-2.115,4.531c-0.342,-0.16 -0.685,-0.317 -1.028,-0.473c-2.18,-0.98 -4.4,-1.869 -6.656,-2.656c-1.957,-0.682 -3.94,-1.286 -5.943,-1.82l-0.034,-0.009l1.274,-4.835c0.014,0.004 0.027,0.007 0.041,0.011Z" style="fill:#ff001c;"/><path d="M127.654,16.219c-2.381,0.634 -4.735,1.363 -7.053,2.196c-2.468,0.886 -4.893,1.888 -7.272,2.991l-0.137,0.064l2.115,4.531c0.342,-0.16 0.685,-0.317 1.029,-0.473c2.179,-0.98 4.399,-1.869 6.655,-2.656c1.958,-0.682 3.941,-1.286 5.943,-1.82l0.034,-0.009l-1.274,-4.835c-0.013,0.004 -0.027,0.007 -0.04,0.011Z" style="fill:#ff001c;"/><path d="M101.767,27.905c-2.305,1.542 -4.54,3.186 -6.69,4.938c-1.815,1.478 -3.567,3.031 -5.259,4.647l-0.047,0.045l3.465,3.605c0.308,-0.296 0.62,-0.589 0.932,-0.881c1.619,-1.499 3.292,-2.938 5.023,-4.306c1.73,-1.368 3.517,-2.662 5.35,-3.889l0.031,-0.02l-2.769,-4.164c-0.012,0.008 -0.024,0.016 -0.036,0.025Z" style="fill:#ff4600;"/></svg>