<?xml version="1.0" encoding="UTF-8" standalone="no"?>
<!DOCTYPE svg PUBLIC "-//W3C//DTD SVG 1.1//EN" "http://www.w3.org/Graphics/SVG/1.1/DTD/svg11.dtd">
<svg width="100%" height="100%" viewBox="0 0 300 200" version="1.1" xmlns="http://www.w3.org/2000/svg" xmlns:xlink="http://www.w3.org/1999/xlink" xml:space="preserve" xmlns:serif="http://www.serif.com/" style="fill-rule:evenodd;clip-rule:evenodd;stroke-linejoin:round;stroke-miterlimit:2;">
    <g id="Artboard1" transform="matrix(2.14286,0,0,1.42857,0,0)">
        <rect x="0" y="0" width="140" height="140" style="fill:none;"/>
        <clipPath id="_clip1">
            <rect x="0" y="0" width="140" height="140"/>
        </clipPath>
        <g clip-path="url(#_clip1)">
            <g transform="matrix(0.351078,0,0,0.648148,-163.984,-64.5405)">
                <g>
                    <g>
                        <g transform="matrix(1.47662,0,0,0.8,-333.05,-3.725e-06)">
                            <rect x="541.93" y="124.471" width="270" height="270" style="fill:rgb(2,14,30);"/>
                        </g>
                        <g transform="matrix(1.22936,0,0,0.998857,281.616,-55.2794)">
                            <g transform="matrix(70.2009,0,0,70.2009,231.619,253.268)">
                                <path d="M0.091,-0.718L0.234,-0.718C0.314,-0.718 0.368,-0.715 0.396,-0.708C0.439,-0.699 0.474,-0.678 0.5,-0.646C0.527,-0.614 0.541,-0.574 0.541,-0.527C0.541,-0.488 0.531,-0.454 0.513,-0.424C0.495,-0.394 0.468,-0.372 0.434,-0.357C0.4,-0.342 0.353,-0.334 0.292,-0.333L0.551,-0L0.462,-0L0.204,-0.333L0.163,-0.333L0.163,-0L0.091,-0L0.091,-0.718ZM0.163,-0.648L0.163,-0.404L0.287,-0.403C0.335,-0.403 0.37,-0.407 0.393,-0.416C0.416,-0.426 0.434,-0.44 0.447,-0.46C0.46,-0.48 0.466,-0.503 0.466,-0.527C0.466,-0.551 0.46,-0.573 0.447,-0.593C0.434,-0.613 0.417,-0.627 0.395,-0.635C0.374,-0.644 0.339,-0.648 0.29,-0.648L0.163,-0.648Z" style="fill:rgb(255,0,0);fill-rule:nonzero;"/>
                            </g>
                            <g transform="matrix(70.2009,0,0,70.2009,274.226,253.268)">
                                <path d="M0.381,-0.718L0.716,-0L0.638,-0L0.525,-0.236L0.216,-0.236L0.104,-0L0.024,-0L0.363,-0.718L0.381,-0.718ZM0.372,-0.566L0.249,-0.306L0.494,-0.306L0.372,-0.566Z" style="fill:rgb(255,0,0);fill-rule:nonzero;"/>
                            </g>
                            <g transform="matrix(70.2009,0,0,70.2009,326.157,253.268)">
                                <path d="M0.047,-0.718L0.121,-0.718L0.267,-0.201L0.473,-0.718L0.488,-0.718L0.692,-0.201L0.841,-0.718L0.914,-0.718L0.708,-0L0.694,-0L0.481,-0.543L0.264,-0L0.251,-0L0.047,-0.718Z" style="fill:rgb(255,0,0);fill-rule:nonzero;"/>
                            </g>
                            <g transform="matrix(70.2009,0,0,70.2009,234.721,323.469)">
                                <path d="M0.016,-0.648L0.016,-0.718L0.41,-0.718L0.41,-0.648L0.25,-0.648L0.25,-0L0.176,-0L0.176,-0.648L0.016,-0.648Z" style="fill:rgb(255,0,0);fill-rule:nonzero;"/>
                            </g>
                            <g transform="matrix(70.2009,0,0,70.2009,264.611,323.469)">
                                <path d="M0.381,-0.718L0.716,-0L0.638,-0L0.525,-0.236L0.216,-0.236L0.104,-0L0.024,-0L0.363,-0.718L0.381,-0.718ZM0.372,-0.566L0.249,-0.306L0.494,-0.306L0.372,-0.566Z" style="fill:rgb(255,0,0);fill-rule:nonzero;"/>
                            </g>
                            <g transform="matrix(70.2009,0,0,70.2009,316.542,323.469)">
                                <path d="M0.087,-0.718L0.159,-0.718L0.159,-0.069L0.436,-0.069L0.436,-0L0.087,-0L0.087,-0.718Z" style="fill:rgb(255,0,0);fill-rule:nonzero;"/>
                            </g>
                            <g transform="matrix(70.2009,0,0,70.2009,348.969,323.469)">
                                <path d="M0.087,-0.718L0.161,-0.718L0.161,-0.449L0.448,-0.718L0.544,-0.718L0.199,-0.396L0.571,-0L0.475,-0L0.161,-0.335L0.161,-0L0.087,-0L0.087,-0.718Z" style="fill:rgb(255,0,0);fill-rule:nonzero;"/>
                            </g>
                        </g>
                    </g>
                </g>
            </g>
        </g>
    </g>
</svg>
