<svg width="48" height="60" viewBox="0 0 48 60" fill="none" xmlns="http://www.w3.org/2000/svg">
<path d="M9 39V24.2471H11.9113V26.0493H12.043C12.1724 25.7605 12.3595 25.4672 12.6045 25.1691C12.854 24.8664 13.1775 24.615 13.5749 24.4147C13.9769 24.2098 14.476 24.1074 15.0721 24.1074C15.8485 24.1074 16.5647 24.3123 17.2209 24.7221C17.8771 25.1272 18.4016 25.7396 18.7944 26.5592C19.1872 27.3741 19.3836 28.3963 19.3836 29.6257C19.3836 30.8225 19.1918 31.8331 18.8083 32.6574C18.4293 33.477 17.9118 34.0987 17.2556 34.5224C16.604 34.9415 15.8739 35.1511 15.0652 35.1511C14.4922 35.1511 14.0046 35.0556 13.6026 34.8647C13.2052 34.6738 12.8794 34.4339 12.6252 34.1452C12.3711 33.8518 12.177 33.5561 12.043 33.2581H11.9529V39H9ZM11.8905 29.6118C11.8905 30.2498 11.9783 30.8063 12.1539 31.2812C12.3295 31.7562 12.5837 32.1265 12.9164 32.3919C13.2491 32.6527 13.6534 32.7831 14.1294 32.7831C14.61 32.7831 15.0167 32.6504 15.3494 32.3849C15.6821 32.1148 15.9339 31.7423 16.1049 31.2673C16.2805 30.7876 16.3683 30.2358 16.3683 29.6118C16.3683 28.9924 16.2828 28.4475 16.1119 27.9772C15.9409 27.5069 15.689 27.139 15.3563 26.8735C15.0236 26.6081 14.6146 26.4754 14.1294 26.4754C13.6488 26.4754 13.2422 26.6034 12.9094 26.8596C12.5813 27.1157 12.3295 27.4789 12.1539 27.9493C11.9783 28.4196 11.8905 28.9738 11.8905 29.6118Z" fill="black"/>
<path d="M25.2755 35.1511C24.4668 35.1511 23.7343 34.9415 23.0781 34.5224C22.4266 34.0987 21.909 33.477 21.5255 32.6574C21.1465 31.8331 20.9571 30.8225 20.9571 29.6257C20.9571 28.3963 21.1535 27.3741 21.5463 26.5592C21.939 25.7396 22.4612 25.1272 23.1128 24.7221C23.769 24.3123 24.4876 24.1074 25.2685 24.1074C25.8647 24.1074 26.3614 24.2098 26.7588 24.4147C27.1609 24.615 27.4844 24.8664 27.7293 25.1691C27.9788 25.4672 28.1683 25.7605 28.2977 26.0493H28.3878V20.6706H31.3337V34.9765H28.4224V33.2581H28.2977C28.159 33.5561 27.9626 33.8518 27.7085 34.1452C27.4589 34.4339 27.1332 34.6738 26.7311 34.8647C26.3337 35.0556 25.8485 35.1511 25.2755 35.1511ZM26.2112 32.7831C26.6872 32.7831 27.0893 32.6527 27.4174 32.3919C27.7501 32.1265 28.0042 31.7562 28.1798 31.2812C28.3601 30.8063 28.4502 30.2498 28.4502 29.6118C28.4502 28.9738 28.3624 28.4196 28.1868 27.9493C28.0112 27.4789 27.757 27.1157 27.4243 26.8596C27.0916 26.6034 26.6872 26.4754 26.2112 26.4754C25.726 26.4754 25.3171 26.6081 24.9843 26.8735C24.6516 27.139 24.3998 27.5069 24.2288 27.9772C24.0578 28.4475 23.9723 28.9924 23.9723 29.6118C23.9723 30.2358 24.0578 30.7876 24.2288 31.2673C24.4044 31.7423 24.6563 32.1148 24.9843 32.3849C25.3171 32.6504 25.726 32.7831 26.2112 32.7831Z" fill="black"/>
<path d="M39.4871 24.2471V26.4824H32.9159V24.2471H39.4871ZM34.42 34.9765V23.4717C34.42 22.694 34.5702 22.049 34.8706 21.5368C35.1756 21.0245 35.5915 20.6403 36.1183 20.3842C36.6451 20.1281 37.2435 20 37.9136 20C38.3664 20 38.78 20.0349 39.1543 20.1048C39.5333 20.1746 39.8152 20.2375 40 20.2934L39.4732 22.5287C39.3577 22.4914 39.2144 22.4565 39.0434 22.4239C38.8771 22.3913 38.7061 22.375 38.5305 22.375C38.0961 22.375 37.7934 22.4775 37.6225 22.6824C37.4515 22.8826 37.366 23.1643 37.366 23.5276V34.9765H34.42Z" fill="black"/>
<path fill-rule="evenodd" clip-rule="evenodd" d="M38 3H3V57H45V10C45 6.13401 41.866 3 38 3ZM0 0V60H48V10C48 4.47715 43.5229 0 38 0H0Z" fill="black"/>
</svg>
