<?xml version="1.0" encoding="UTF-8" standalone="no"?>
<!DOCTYPE svg PUBLIC "-//W3C//DTD SVG 1.1//EN" "http://www.w3.org/Graphics/SVG/1.1/DTD/svg11.dtd">
<svg width="100%" height="100%" viewBox="0 0 300 200" version="1.1" xmlns="http://www.w3.org/2000/svg" xmlns:xlink="http://www.w3.org/1999/xlink" xml:space="preserve" xmlns:serif="http://www.serif.com/" style="fill-rule:evenodd;clip-rule:evenodd;stroke-linejoin:round;stroke-miterlimit:2;">
    <rect id="bg" x="0" y="0" width="300" height="200" style="fill:rgb(229,246,255);"/>
    <g transform="matrix(0.971035,0,0,0.64,10.4101,30.473)">
        <rect x="102.561" y="79.386" width="82.386" height="15.625" style="fill:rgb(155,188,207);"/>
    </g>
    <g transform="matrix(0.485517,0,0,2.56,-19.7949,-93.2291)">
        <rect x="102.561" y="79.386" width="82.386" height="15.625" style="fill:rgb(155,188,207);"/>
    </g>
    <g transform="matrix(0.485517,0,0,2.56,-19.7949,-43.2291)">
        <rect x="102.561" y="79.386" width="82.386" height="15.625" style="fill:rgb(155,188,207);"/>
    </g>
    <g transform="matrix(0.485517,0,0,2.56,30.2051,-93.2291)">
        <rect x="102.561" y="79.386" width="82.386" height="15.625" style="fill:rgb(155,188,207);"/>
    </g>
    <g transform="matrix(0.485517,0,0,2.56,30.2051,-43.2291)">
        <rect x="102.561" y="79.386" width="82.386" height="15.625" style="fill:rgb(155,188,207);"/>
    </g>
    <g transform="matrix(0.485517,0,0,2.56,80.2051,-93.2291)">
        <rect x="102.561" y="79.386" width="82.386" height="15.625" style="fill:rgb(155,188,207);"/>
    </g>
    <g transform="matrix(0.485517,0,0,2.56,80.2051,-43.2291)">
        <rect x="102.561" y="79.386" width="82.386" height="15.625" style="fill:rgb(155,188,207);"/>
    </g>
    <g transform="matrix(0.485517,0,0,2.56,130.205,-93.2291)">
        <rect x="102.561" y="79.386" width="82.386" height="15.625" style="fill:rgb(155,188,207);"/>
    </g>
    <g transform="matrix(0.485517,0,0,2.56,130.205,-43.2291)">
        <rect x="102.561" y="79.386" width="82.386" height="15.625" style="fill:rgb(155,188,207);"/>
    </g>
    <g transform="matrix(0.485517,0,0,2.56,180.205,-93.2291)">
        <rect x="102.561" y="79.386" width="82.386" height="15.625" style="fill:rgb(155,188,207);"/>
    </g>
    <g transform="matrix(0.485517,0,0,2.56,180.205,-43.2291)">
        <rect x="102.561" y="79.386" width="82.386" height="15.625" style="fill:rgb(155,188,207);"/>
    </g>
    <g transform="matrix(1,0,0,1,6.86192,-18.1742)">
        <text x="96.241px" y="50.667px" style="font-family:'ArialMT', 'Arial', sans-serif;font-size:30px;">Franco</text>
        <text x="85.394px" y="81.648px" style="font-family:'ArialMT', 'Arial', sans-serif;font-size:30px;">Chan</text>
        <text x="157.113px" y="81.648px" style="font-family:'Arial-BoldMT', 'Arial', sans-serif;font-weight:700;font-size:30px;">.co</text>
    </g>
</svg>
