<?xml version="1.0" encoding="UTF-8" standalone="no"?><!DOCTYPE svg PUBLIC "-//W3C//DTD SVG 1.1//EN" "http://www.w3.org/Graphics/SVG/1.1/DTD/svg11.dtd"><svg width="100%" height="100%" viewBox="0 0 300 200" version="1.1" xmlns="http://www.w3.org/2000/svg" xmlns:xlink="http://www.w3.org/1999/xlink" xml:space="preserve" xmlns:serif="http://www.serif.com/" style="fill-rule:evenodd;clip-rule:evenodd;stroke-miterlimit:2;"><rect id="results_visualise" x="0" y="0" width="300" height="200" style="fill:#fff7e7;"/><circle cx="24" cy="47.5" r="7" style="fill:#ff1300;fill-opacity:0.501961;"/><circle cx="80" cy="75.5" r="7" style="fill:#ff1300;fill-opacity:0.501961;"/><circle cx="52" cy="61.5" r="7" style="fill:#ff1300;fill-opacity:0.501961;"/><circle cx="108" cy="152.5" r="7" style="fill:#ff1300;fill-opacity:0.501961;"/><circle cx="136" cy="116.1" r="7" style="fill:#ff1300;fill-opacity:0.501961;"/><circle cx="164" cy="96.5" r="7" style="fill:#ff1300;fill-opacity:0.501961;"/><circle cx="136" cy="96.5" r="7" style="fill:#ff1300;fill-opacity:0.501961;"/><circle cx="192" cy="74.1" r="7" style="fill:#ff1300;fill-opacity:0.501961;"/><circle cx="276" cy="51.7" r="7" style="fill:#ff1300;fill-opacity:0.501961;"/><circle cx="276" cy="58.7" r="7" style="fill:#ff1300;fill-opacity:0.501961;"/><circle cx="276" cy="72.7" r="7" style="fill:#ff1300;fill-opacity:0.501961;"/><circle cx="220" cy="62.9" r="7" style="fill:#ff1300;fill-opacity:0.501961;"/><circle cx="248" cy="60.1" r="7" style="fill:#ff1300;fill-opacity:0.501961;"/><circle cx="248" cy="41.9" r="7" style="fill:#ff1300;fill-opacity:0.501961;"/><circle cx="164" cy="88.1" r="7" style="fill:#ff1300;fill-opacity:0.501961;"/><circle cx="108" cy="61.5" r="7" style="fill:#ff1300;fill-opacity:0.501961;"/><circle cx="136" cy="47.5" r="7" style="fill:#ff1300;fill-opacity:0.501961;"/><circle cx="192" cy="33.5" r="7" style="fill:#ff1300;fill-opacity:0.501961;"/><circle cx="276" cy="19.5" r="7" style="fill:#ff1300;fill-opacity:0.501961;"/><circle cx="164" cy="62.9" r="7" style="fill:#ff1300;fill-opacity:0.501961;"/><circle cx="24" cy="75.5" r="7" style="fill:#ff1300;fill-opacity:0.501961;"/><circle cx="80" cy="109.1" r="7" style="fill:#ff1300;fill-opacity:0.501961;"/><circle cx="52" cy="68.5" r="7" style="fill:#ff1300;fill-opacity:0.501961;"/><circle cx="108" cy="102.1" r="7" style="fill:#ff1300;fill-opacity:0.501961;"/><circle cx="24" cy="103.5" r="7" style="fill:#ff1300;fill-opacity:0.501961;"/><circle cx="80" cy="131.5" r="7" style="fill:#ff1300;fill-opacity:0.501961;"/><circle cx="52" cy="117.5" r="7" style="fill:#ff1300;fill-opacity:0.501961;"/><circle cx="108" cy="180.5" r="7" style="fill:#ff1300;fill-opacity:0.501961;"/><circle cx="136" cy="152.5" r="7" style="fill:#ff1300;fill-opacity:0.501961;"/><circle cx="164" cy="121.7" r="7" style="fill:#ff1300;fill-opacity:0.501961;"/><circle cx="136" cy="145.5" r="7" style="fill:#ff1300;fill-opacity:0.501961;"/><circle cx="164" cy="170.7" r="7" style="fill:#ff1300;fill-opacity:0.501961;"/><circle cx="143" cy="152.5" r="7" style="fill:#ff1300;fill-opacity:0.501961;"/><circle cx="171" cy="121.7" r="7" style="fill:#ff1300;fill-opacity:0.501961;"/><circle cx="24" cy="111.9" r="7" style="fill:#ff1300;fill-opacity:0.501961;"/><circle cx="80" cy="139.9" r="7" style="fill:#ff1300;fill-opacity:0.501961;"/><circle cx="52" cy="86.7" r="7" style="fill:#ff1300;fill-opacity:0.501961;"/><circle cx="108" cy="142.7" r="7" style="fill:#ff1300;fill-opacity:0.501961;"/><circle cx="108" cy="74.1" r="7" style="fill:#ff1300;fill-opacity:0.501961;"/><path d="M12.5,100l275,0" style="fill:none;stroke:#000;stroke-width:2px;"/></svg>