<?xml version="1.0" encoding="UTF-8" standalone="no"?>
<!DOCTYPE svg PUBLIC "-//W3C//DTD SVG 1.1//EN" "http://www.w3.org/Graphics/SVG/1.1/DTD/svg11.dtd">
<svg width="100%" height="100%" viewBox="0 0 300 200" version="1.1" xmlns="http://www.w3.org/2000/svg" xmlns:xlink="http://www.w3.org/1999/xlink" xml:space="preserve" xmlns:serif="http://www.serif.com/" style="fill-rule:evenodd;clip-rule:evenodd;stroke-linejoin:round;stroke-miterlimit:2;">
    <rect id="bg" x="0" y="0" width="300" height="200" style="fill:rgb(255,249,244);"/>
    <g>
        <g transform="matrix(0.731383,0,0,0.731383,5.27482,4.39929)">
            <rect x="4.182" y="5.333" width="68.364" height="68.364" style="fill:rgb(255,144,60);"/>
        </g>
        <g transform="matrix(0.731383,0,0,0.731383,63.6082,4.39929)">
            <rect x="4.182" y="5.333" width="68.364" height="68.364" style="fill:rgb(255,144,60);fill-opacity:0.85;"/>
        </g>
        <g transform="matrix(0.731383,0,0,0.731383,121.941,4.39929)">
            <rect x="4.182" y="5.333" width="68.364" height="68.364" style="fill:rgb(255,144,60);fill-opacity:0.7;"/>
        </g>
        <g transform="matrix(0.731383,0,0,0.731383,180.275,4.39929)">
            <rect x="4.182" y="5.333" width="68.364" height="68.364" style="fill:rgb(255,144,60);fill-opacity:0.55;"/>
        </g>
        <g transform="matrix(0.731383,0,0,0.731383,238.608,4.39929)">
            <rect x="4.182" y="5.333" width="68.364" height="68.364" style="fill:rgb(255,144,60);fill-opacity:0.4;"/>
        </g>
        <g transform="matrix(0.731383,0,0,0.731383,5.27482,62.6993)">
            <rect x="4.182" y="5.333" width="68.364" height="68.364" style="fill:rgb(255,144,60);fill-opacity:0.85;"/>
        </g>
        <g transform="matrix(0.731383,0,0,0.731383,63.6082,62.6993)">
            <rect x="4.182" y="5.333" width="68.364" height="68.364" style="fill:rgb(255,144,60);fill-opacity:0.7;"/>
        </g>
        <g transform="matrix(0.731383,0,0,0.731383,121.941,62.6993)">
            <rect x="4.182" y="5.333" width="68.364" height="68.364" style="fill:rgb(255,144,60);fill-opacity:0.55;"/>
        </g>
        <g transform="matrix(0.731383,0,0,0.731383,180.275,62.6993)">
            <rect x="4.182" y="5.333" width="68.364" height="68.364" style="fill:rgb(255,144,60);fill-opacity:0.4;"/>
        </g>
        <g transform="matrix(0.731383,0,0,0.731383,238.608,62.6993)">
            <rect x="4.182" y="5.333" width="68.364" height="68.364" style="fill:rgb(255,144,60);fill-opacity:0.25;"/>
        </g>
        <g transform="matrix(0.731383,0,0,0.731383,5.27482,120.999)">
            <rect x="4.182" y="5.333" width="68.364" height="68.364" style="fill:rgb(255,144,60);fill-opacity:0.7;"/>
        </g>
        <g transform="matrix(0.731383,0,0,0.731383,63.6082,120.999)">
            <rect x="4.182" y="5.333" width="68.364" height="68.364" style="fill:rgb(255,144,60);fill-opacity:0.55;"/>
        </g>
        <g transform="matrix(0.731383,0,0,0.731383,121.941,120.999)">
            <rect x="4.182" y="5.333" width="68.364" height="68.364" style="fill:rgb(255,144,60);fill-opacity:0.4;"/>
        </g>
        <g transform="matrix(0.731383,0,0,0.731383,180.275,120.999)">
            <rect x="4.182" y="5.333" width="68.364" height="68.364" style="fill:rgb(255,144,60);fill-opacity:0.25;"/>
        </g>
        <g transform="matrix(0.731383,0,0,0.731383,238.608,120.999)">
            <rect x="4.182" y="5.333" width="68.364" height="68.364" style="fill:rgb(255,144,60);fill-opacity:0.1;"/>
        </g>
        <g transform="matrix(0.731383,0,0,0.731383,5.27482,179.299)">
            <rect x="4.182" y="5.333" width="68.364" height="68.364" style="fill:rgb(255,144,60);fill-opacity:0.55;"/>
        </g>
        <g transform="matrix(0.731383,0,0,0.731383,63.6082,179.299)">
            <rect x="4.182" y="5.333" width="68.364" height="68.364" style="fill:rgb(255,144,60);fill-opacity:0.4;"/>
        </g>
        <g transform="matrix(0.731383,0,0,0.731383,121.941,179.299)">
            <rect x="4.182" y="5.333" width="68.364" height="68.364" style="fill:rgb(255,144,60);fill-opacity:0.25;"/>
        </g>
        <g transform="matrix(0.731383,0,0,0.731383,180.275,179.299)">
            <rect x="4.182" y="5.333" width="68.364" height="68.364" style="fill:rgb(255,144,60);fill-opacity:0.1;"/>
        </g>
    </g>
    <g transform="matrix(0.427232,0,0,0.427232,29.2625,67.4324)">
        <path d="M111.38,103.513C111.38,101.783 110.729,100.44 109.425,99.482C108.122,98.525 105.85,97.7 102.609,97.008C99.368,96.316 96.797,95.486 94.894,94.517C92.991,93.548 91.584,92.395 90.672,91.057C89.761,89.719 89.306,88.128 89.306,86.283C89.306,83.215 90.603,80.62 93.198,78.498C95.793,76.376 99.109,75.314 103.146,75.314C107.39,75.314 110.832,76.41 113.474,78.601C116.115,80.793 117.435,83.595 117.435,87.009L111,87.009C111,85.256 110.256,83.745 108.768,82.477C107.28,81.208 105.406,80.574 103.146,80.574C100.816,80.574 98.994,81.081 97.679,82.096C96.364,83.111 95.707,84.437 95.707,86.075C95.707,87.62 96.318,88.785 97.54,89.569C98.763,90.354 100.972,91.103 104.166,91.818C107.361,92.534 109.95,93.387 111.934,94.379C113.918,95.371 115.388,96.564 116.345,97.96C117.303,99.355 117.781,101.057 117.781,103.063C117.781,106.408 116.443,109.089 113.768,111.108C111.092,113.126 107.62,114.135 103.353,114.135C100.355,114.135 97.702,113.605 95.395,112.544C93.089,111.483 91.284,110.001 89.98,108.098C88.677,106.195 88.026,104.136 88.026,101.922L94.427,101.922C94.542,104.067 95.401,105.768 97.004,107.025C98.607,108.282 100.724,108.911 103.353,108.911C105.775,108.911 107.719,108.42 109.183,107.44C110.648,106.46 111.38,105.151 111.38,103.513Z" style="fill:rgb(68,48,33);fill-rule:nonzero;"/>
        <path d="M141.136,108.911C143.42,108.911 145.415,108.219 147.122,106.835C148.829,105.451 149.774,103.721 149.959,101.645L156.014,101.645C155.898,103.79 155.16,105.831 153.799,107.769C152.438,109.706 150.622,111.252 148.35,112.405C146.078,113.559 143.673,114.135 141.136,114.135C136.038,114.135 131.984,112.434 128.974,109.032C125.964,105.629 124.459,100.976 124.459,95.071L124.459,93.998C124.459,90.354 125.128,87.113 126.466,84.276C127.804,81.439 129.724,79.236 132.227,77.667C134.729,76.099 137.688,75.314 141.101,75.314C145.299,75.314 148.788,76.572 151.568,79.086C154.347,81.6 155.829,84.864 156.014,88.877L149.959,88.877C149.774,86.456 148.857,84.466 147.208,82.909C145.559,81.352 143.523,80.574 141.101,80.574C137.849,80.574 135.329,81.744 133.541,84.085C131.754,86.427 130.86,89.812 130.86,94.24L130.86,95.451C130.86,99.765 131.748,103.086 133.524,105.416C135.3,107.746 137.837,108.911 141.136,108.911Z" style="fill:rgb(68,48,33);fill-rule:nonzero;"/>
        <path d="M181.306,81.75C180.337,81.589 179.288,81.508 178.157,81.508C173.959,81.508 171.111,83.295 169.611,86.871L169.611,113.443L163.21,113.443L163.21,76.006L169.438,76.006L169.542,80.331C171.641,76.987 174.617,75.314 178.469,75.314C179.714,75.314 180.66,75.476 181.306,75.799L181.306,81.75Z" style="fill:rgb(68,48,33);fill-rule:nonzero;"/>
        <path d="M184.801,94.379C184.801,90.711 185.521,87.413 186.963,84.483C188.405,81.554 190.412,79.293 192.983,77.702C195.555,76.11 198.491,75.314 201.789,75.314C206.887,75.314 211.01,77.079 214.158,80.608C217.307,84.137 218.881,88.831 218.881,94.69L218.881,95.14C218.881,98.784 218.183,102.054 216.788,104.949C215.392,107.844 213.397,110.099 210.802,111.713C208.207,113.328 205.226,114.135 201.858,114.135C196.784,114.135 192.672,112.371 189.523,108.841C186.375,105.312 184.801,100.641 184.801,94.829L184.801,94.379ZM191.236,95.14C191.236,99.292 192.199,102.625 194.125,105.139C196.051,107.654 198.629,108.911 201.858,108.911C205.111,108.911 207.694,107.636 209.608,105.087C211.523,102.539 212.48,98.969 212.48,94.379C212.48,90.273 211.506,86.946 209.557,84.397C207.607,81.848 205.018,80.574 201.789,80.574C198.629,80.574 196.08,81.831 194.142,84.345C192.205,86.859 191.236,90.458 191.236,95.14Z" style="fill:rgb(68,48,33);fill-rule:nonzero;"/>
        <rect x="227.462" y="60.298" width="6.401" height="53.145" style="fill:rgb(68,48,33);fill-rule:nonzero;"/>
        <rect x="244.658" y="60.298" width="6.401" height="53.145" style="fill:rgb(68,48,33);fill-rule:nonzero;"/>
        <path d="M277.147,90.988C271.449,89.35 267.303,87.338 264.708,84.95C262.113,82.563 260.816,79.616 260.816,76.11C260.816,72.143 262.402,68.862 265.573,66.267C268.745,63.672 272.868,62.374 277.943,62.374C281.403,62.374 284.488,63.043 287.198,64.381C289.908,65.719 292.007,67.564 293.495,69.917C294.983,72.27 295.727,74.842 295.727,77.633L289.049,77.633C289.049,74.577 288.08,72.175 286.143,70.428C284.205,68.68 281.472,67.806 277.943,67.806C274.667,67.806 272.113,68.529 270.279,69.973C268.445,71.417 267.528,73.422 267.528,75.986C267.528,78.043 268.399,79.782 270.14,81.203C271.882,82.625 274.846,83.924 279.033,85.103C283.219,86.281 286.495,87.58 288.859,88.999C291.223,90.417 292.976,92.072 294.118,93.964C295.26,95.855 295.831,98.081 295.831,100.641C295.831,104.724 294.239,107.994 291.056,110.45C287.873,112.907 283.617,114.135 278.289,114.135C274.829,114.135 271.599,113.472 268.601,112.146C265.602,110.819 263.29,109.003 261.664,106.696C260.037,104.39 259.224,101.772 259.224,98.842L265.902,98.842C265.902,101.887 267.026,104.292 269.275,106.056C271.524,107.821 274.529,108.703 278.289,108.703C281.795,108.703 284.482,107.988 286.35,106.558C288.219,105.128 289.153,103.179 289.153,100.711C289.153,98.242 288.288,96.334 286.558,94.984C284.828,93.635 281.691,92.303 277.147,90.988Z" style="fill:rgb(68,48,33);fill-rule:nonzero;"/>
        <path d="M309.74,80.539C312.577,77.056 316.267,75.314 320.812,75.314C328.723,75.314 332.714,79.778 332.783,88.704L332.783,113.443L326.382,113.443L326.382,88.67C326.359,85.971 325.742,83.976 324.531,82.684C323.32,81.392 321.434,80.747 318.874,80.747C316.798,80.747 314.976,81.3 313.407,82.407C311.839,83.515 310.616,84.968 309.74,86.767L309.74,113.443L303.339,113.443L303.339,60.298L309.74,60.298L309.74,80.539Z" style="fill:rgb(68,48,33);fill-rule:nonzero;"/>
        <path d="M340.672,94.379C340.672,90.711 341.392,87.413 342.834,84.483C344.276,81.554 346.283,79.293 348.854,77.702C351.426,76.11 354.362,75.314 357.66,75.314C362.758,75.314 366.881,77.079 370.029,80.608C373.178,84.137 374.752,88.831 374.752,94.69L374.752,95.14C374.752,98.784 374.054,102.054 372.659,104.949C371.263,107.844 369.268,110.099 366.673,111.713C364.078,113.328 361.097,114.135 357.729,114.135C352.655,114.135 348.543,112.371 345.395,108.841C342.246,105.312 340.672,100.641 340.672,94.829L340.672,94.379ZM347.107,95.14C347.107,99.292 348.07,102.625 349.996,105.139C351.922,107.654 354.5,108.911 357.729,108.911C360.982,108.911 363.565,107.636 365.48,105.087C367.394,102.539 368.351,98.969 368.351,94.379C368.351,90.273 367.377,86.946 365.428,84.397C363.479,81.848 360.889,80.574 357.66,80.574C354.5,80.574 351.951,81.831 350.014,84.345C348.076,86.859 347.107,90.458 347.107,95.14Z" style="fill:rgb(68,48,33);fill-rule:nonzero;"/>
        <path d="M415.926,104.62L423.122,76.006L429.523,76.006L418.625,113.443L413.435,113.443L404.335,85.072L395.477,113.443L390.287,113.443L379.423,76.006L385.79,76.006L393.159,104.032L401.878,76.006L407.034,76.006L415.926,104.62Z" style="fill:rgb(68,48,33);fill-rule:nonzero;"/>
    </g>
    <g transform="matrix(3.06162e-17,0.5,-0.796158,4.87506e-17,335.842,-0.0666667)">
        <path d="M195.169,145.069L195.169,149.9L183.333,142.467L195.169,135.034L195.169,139.866L221.498,139.866L221.498,135.034L233.333,142.467L221.498,149.9L221.498,145.069L195.169,145.069Z" style="fill:rgb(68,48,33);"/>
    </g>
</svg>
